<svg width="444" height="614" viewBox="0 0 444 614" fill="none" xmlns="http://www.w3.org/2000/svg">
<g filter="url(#filter0_d_501_21597)">
<rect x="12" y="4" width="420" height="590" rx="52" fill="white"/>
</g>
<path d="M224 300C291.931 300 347 244.931 347 177C347 109.069 291.931 54 224 54C156.069 54 101 109.069 101 177C101 244.931 156.069 300 224 300Z" fill="#E9E9E9"/>
<path d="M224 296C289.722 296 343 242.722 343 177C343 111.278 289.722 58 224 58C158.278 58 105 111.278 105 177C105 242.722 158.278 296 224 296Z" fill="white"/>
<path d="M336.299 258.479C354.957 258.479 370.082 243.331 370.082 224.645C370.082 205.959 354.957 190.811 336.299 190.811C317.641 190.811 302.516 205.959 302.516 224.645C302.516 243.331 317.641 258.479 336.299 258.479Z" fill="#E0F4FA"/>
<g opacity="0.91">
<path d="M336.95 245.755C336.575 245.755 336.2 245.747 335.822 245.73C322.937 245.161 312.882 234.887 313.408 222.825C313.664 216.96 316.35 211.561 320.971 207.621C325.56 203.709 331.517 201.709 337.733 201.981C350.619 202.55 360.674 212.824 360.147 224.886C359.891 230.751 357.205 236.15 352.585 240.09C348.274 243.765 342.758 245.755 336.949 245.755H336.95ZM336.608 205.044C331.529 205.044 326.719 206.775 322.969 209.973C319.008 213.35 316.706 217.963 316.488 222.96C316.035 233.321 324.769 242.153 335.957 242.646C341.395 242.881 346.593 241.144 350.586 237.739C354.547 234.362 356.849 229.749 357.067 224.751C357.519 214.391 348.785 205.559 337.597 205.065C337.266 205.051 336.936 205.043 336.606 205.043L336.608 205.044Z" fill="#63A1B3"/>
<path d="M342.362 223.955C342.357 227.544 342.112 231.141 341.483 234.68C341.323 235.564 341.138 236.444 340.918 237.315C340.697 238.186 340.443 239.05 340.131 239.893C339.817 240.735 339.451 241.565 338.957 242.324C338.707 242.701 338.424 243.061 338.075 243.357C337.9 243.505 337.709 243.636 337.497 243.732C337.287 243.827 337.057 243.887 336.823 243.892C336.59 243.899 336.356 243.853 336.142 243.765C335.927 243.679 335.731 243.555 335.552 243.412C335.194 243.124 334.905 242.768 334.651 242.395C334.147 241.642 333.777 240.813 333.459 239.973C333.143 239.13 332.886 238.268 332.663 237.396C332.441 236.525 332.254 235.646 332.094 234.763C331.774 232.995 331.555 231.211 331.407 229.421C331.26 227.631 331.187 225.835 331.178 224.039C331.174 223.141 331.198 222.244 331.23 221.347C331.264 220.45 331.313 219.554 331.378 218.658C331.51 216.868 331.708 215.082 332.001 213.31C332.148 212.424 332.319 211.542 332.526 210.669C332.733 209.795 332.973 208.928 333.272 208.08C333.422 207.657 333.585 207.237 333.772 206.828C333.959 206.418 334.168 206.018 334.414 205.64C334.66 205.263 334.943 204.904 335.295 204.616C335.471 204.473 335.665 204.349 335.877 204.265C336.089 204.179 336.318 204.136 336.547 204.146C336.776 204.153 337.001 204.21 337.209 204.301C337.417 204.394 337.609 204.52 337.785 204.663C338.136 204.95 338.427 205.3 338.685 205.67C339.197 206.412 339.584 207.23 339.919 208.064C340.251 208.899 340.525 209.755 340.765 210.621C341.004 211.487 341.206 212.363 341.38 213.243C342.071 216.77 342.352 220.367 342.362 223.957V223.955ZM342.097 223.955C342.1 222.166 342.033 220.377 341.885 218.594C341.739 216.812 341.518 215.035 341.189 213.277C341.025 212.399 340.834 211.525 340.606 210.661C340.377 209.797 340.114 208.943 339.793 208.11C339.469 207.28 339.095 206.465 338.597 205.727C338.346 205.362 338.064 205.014 337.726 204.732C337.557 204.591 337.373 204.468 337.174 204.377C336.976 204.287 336.762 204.228 336.544 204.222C336.327 204.215 336.109 204.259 335.908 204.342C335.706 204.424 335.522 204.546 335.353 204.686C335.014 204.969 334.741 205.323 334.503 205.696C334.265 206.071 334.063 206.469 333.882 206.876C333.702 207.283 333.544 207.701 333.399 208.123C333.112 208.969 332.882 209.833 332.686 210.705C332.49 211.577 332.329 212.457 332.191 213.34C331.919 215.108 331.741 216.89 331.629 218.675C331.516 220.46 331.476 222.249 331.479 224.039C331.475 225.827 331.534 227.616 331.667 229.4C331.8 231.183 332.004 232.962 332.31 234.723C332.462 235.604 332.642 236.479 332.856 237.346C333.071 238.213 333.319 239.071 333.626 239.909C333.934 240.744 334.294 241.565 334.781 242.305C335.026 242.671 335.305 243.02 335.643 243.295C335.813 243.432 335.996 243.55 336.195 243.631C336.393 243.713 336.606 243.758 336.819 243.751C337.032 243.746 337.242 243.688 337.436 243.599C337.631 243.508 337.81 243.383 337.976 243.243C338.307 242.957 338.579 242.605 338.82 242.235C339.298 241.489 339.654 240.666 339.958 239.83C340.261 238.992 340.507 238.133 340.72 237.265C340.931 236.397 341.108 235.521 341.26 234.64C341.564 232.879 341.765 231.099 341.899 229.316C342.035 227.533 342.097 225.744 342.096 223.955H342.097Z" fill="#63A1B3"/>
<path d="M336.771 244.415C336.499 244.415 336.213 244.358 335.947 244.251C335.702 244.153 335.465 244.012 335.227 243.822C334.87 243.535 334.55 243.176 334.22 242.69C333.761 242.005 333.365 241.202 332.971 240.158C332.673 239.364 332.407 238.503 332.157 237.527C331.942 236.687 331.754 235.814 331.58 234.857C331.273 233.162 331.046 231.399 330.887 229.464C330.743 227.706 330.665 225.882 330.656 224.042C330.651 223.081 330.68 222.131 330.708 221.328C330.743 220.415 330.793 219.504 330.857 218.619C331.001 216.674 331.206 214.91 331.486 213.223C331.645 212.262 331.82 211.387 332.018 210.546C332.25 209.564 332.5 208.699 332.779 207.904C332.949 207.425 333.119 207 333.298 206.609C333.516 206.132 333.737 205.721 333.976 205.353C334.298 204.86 334.612 204.497 334.965 204.209C335.2 204.018 335.442 203.873 335.684 203.777C335.964 203.664 336.269 203.611 336.565 203.622C336.847 203.63 337.135 203.697 337.416 203.821C337.653 203.926 337.879 204.068 338.109 204.254C338.461 204.541 338.777 204.894 339.108 205.367C339.576 206.044 339.986 206.837 340.399 207.865C340.715 208.657 340.997 209.512 341.264 210.479C341.497 211.322 341.7 212.191 341.888 213.139C342.544 216.489 342.869 220.026 342.88 223.954V223.955C342.874 227.908 342.584 231.446 341.993 234.772C341.82 235.728 341.634 236.602 341.421 237.445C341.174 238.42 340.911 239.281 340.617 240.077C340.226 241.123 339.836 241.928 339.389 242.612C339.065 243.101 338.754 243.465 338.409 243.758C338.177 243.954 337.949 244.101 337.711 244.209C337.418 244.341 337.123 244.41 336.831 244.415C336.811 244.415 336.792 244.416 336.772 244.416L336.771 244.415ZM336.5 204.744C336.369 204.744 336.234 204.772 336.105 204.826C335.966 204.883 335.825 204.971 335.683 205.089C335.426 205.303 335.19 205.585 334.939 205.979C334.736 206.3 334.545 206.664 334.357 207.089C334.196 207.451 334.044 207.845 333.891 208.293C333.634 209.05 333.406 209.877 333.193 210.82C333.009 211.636 332.85 212.487 332.705 213.42C332.45 215.075 332.268 216.804 332.148 218.707C332.044 220.334 331.996 222.078 331.999 224.037C331.994 225.846 332.057 227.636 332.185 229.361C332.326 231.254 332.534 232.979 332.822 234.634C332.983 235.559 333.159 236.406 333.36 237.221C333.592 238.157 333.838 238.977 334.114 239.728C334.467 240.684 334.816 241.411 335.215 242.016C335.471 242.4 335.712 242.678 335.971 242.889C336.113 243.005 336.255 243.092 336.389 243.146C336.533 243.205 336.667 243.226 336.801 243.228C336.936 243.225 337.075 243.19 337.219 243.124C337.355 243.061 337.497 242.967 337.638 242.845C337.893 242.625 338.13 242.341 338.385 241.948C338.775 241.341 339.12 240.61 339.47 239.65C339.742 238.897 339.985 238.075 340.214 237.139C340.413 236.329 340.587 235.482 340.747 234.551C341.029 232.91 341.236 231.185 341.379 229.277C341.51 227.556 341.576 225.766 341.576 223.954C341.579 222.149 341.509 220.361 341.365 218.637C341.21 216.741 340.985 215.019 340.677 213.374C340.506 212.457 340.318 211.613 340.102 210.795C339.857 209.867 339.596 209.05 339.307 208.299C338.939 207.353 338.576 206.629 338.166 206.021C337.903 205.636 337.657 205.354 337.393 205.133C337.246 205.012 337.1 204.916 336.958 204.852C336.809 204.784 336.665 204.748 336.53 204.744C336.521 204.744 336.51 204.744 336.501 204.744H336.5Z" fill="#63A1B3"/>
<path d="M351.369 223.955C351.357 226.267 351.061 228.579 350.446 230.808C349.819 233.031 348.875 235.171 347.593 237.092C346.952 238.051 346.226 238.954 345.415 239.774C344.604 240.593 343.707 241.328 342.734 241.944C341.759 242.558 340.706 243.049 339.605 243.382C338.504 243.717 337.355 243.891 336.204 243.892C335.054 243.892 333.904 243.719 332.802 243.386C331.7 243.053 330.646 242.563 329.671 241.95C328.697 241.335 327.798 240.6 326.986 239.782C326.173 238.962 325.446 238.06 324.804 237.101C323.52 235.179 322.574 233.039 321.945 230.814C321.635 229.699 321.404 228.562 321.253 227.415C321.101 226.268 321.025 225.112 321.02 223.955C321.026 222.797 321.102 221.641 321.255 220.494C321.409 219.347 321.639 218.211 321.95 217.097C322.581 214.872 323.528 212.733 324.813 210.815C325.456 209.856 326.184 208.954 326.996 208.136C327.808 207.318 328.705 206.585 329.68 205.971C330.655 205.36 331.708 204.872 332.808 204.541C333.908 204.207 335.055 204.033 336.205 204.031C337.354 204.034 338.501 204.209 339.601 204.543C340.7 204.876 341.753 205.364 342.727 205.976C343.7 206.591 344.596 207.324 345.407 208.143C346.219 208.961 346.944 209.863 347.586 210.821C348.868 212.74 349.814 214.878 350.441 217.101C351.058 219.33 351.355 221.642 351.369 223.954V223.955ZM351.066 223.955C351.063 221.669 350.779 219.381 350.18 217.176C349.576 214.974 348.669 212.846 347.419 210.935C346.794 209.98 346.085 209.079 345.29 208.26C344.495 207.444 343.617 206.704 342.656 206.089C341.695 205.478 340.656 204.987 339.567 204.654C338.479 204.321 337.342 204.146 336.204 204.142C335.066 204.147 333.93 204.323 332.842 204.656C331.754 204.99 330.716 205.483 329.756 206.095C328.796 206.71 327.919 207.45 327.126 208.267C326.333 209.086 325.625 209.987 325.001 210.942C323.754 212.853 322.847 214.98 322.248 217.181C321.949 218.283 321.732 219.407 321.586 220.539C321.439 221.671 321.366 222.813 321.364 223.955C321.367 225.096 321.441 226.238 321.588 227.37C321.736 228.502 321.953 229.625 322.253 230.727C322.854 232.928 323.762 235.052 325.01 236.962C325.634 237.916 326.342 238.816 327.135 239.634C327.929 240.45 328.805 241.19 329.764 241.802C330.725 242.413 331.761 242.902 332.848 243.235C333.934 243.57 335.068 243.746 336.204 243.752C337.341 243.748 338.476 243.572 339.561 243.239C340.648 242.906 341.686 242.418 342.647 241.808C343.608 241.196 344.485 240.458 345.28 239.642C346.075 238.824 346.785 237.925 347.409 236.971C348.661 235.06 349.57 232.935 350.175 230.733C350.776 228.528 351.061 226.241 351.065 223.955L351.066 223.955Z" fill="#63A1B3"/>
<path d="M336.203 244.415C335.007 244.415 333.812 244.237 332.651 243.886C331.529 243.548 330.433 243.045 329.394 242.393C328.412 241.773 327.478 241.019 326.617 240.15C325.805 239.331 325.049 238.403 324.372 237.391C323.097 235.483 322.111 233.318 321.443 230.955C321.13 229.828 320.893 228.66 320.736 227.483C320.583 226.331 320.504 225.145 320.498 223.956C320.504 222.761 320.585 221.574 320.737 220.424C320.895 219.247 321.134 218.08 321.447 216.955C322.117 214.591 323.104 212.427 324.379 210.522C325.056 209.513 325.811 208.585 326.626 207.766C327.489 206.897 328.423 206.144 329.402 205.527C330.434 204.88 331.529 204.38 332.657 204.039C333.815 203.688 335.008 203.509 336.203 203.508C337.4 203.51 338.593 203.69 339.75 204.043C340.876 204.384 341.97 204.885 343 205.533C343.979 206.151 344.912 206.904 345.773 207.773C346.586 208.593 347.341 209.52 348.015 210.529C349.289 212.436 350.274 214.598 350.94 216.959C351.555 219.178 351.873 221.529 351.888 223.951V223.957C351.875 226.378 351.558 228.73 350.945 230.947C350.28 233.31 349.298 235.475 348.024 237.383C347.348 238.394 346.594 239.323 345.782 240.143C344.922 241.011 343.989 241.767 343.009 242.386C341.971 243.04 340.876 243.543 339.753 243.883C338.595 244.233 337.4 244.412 336.203 244.414L336.203 244.415ZM336.202 204.665C335.123 204.669 334.042 204.834 332.993 205.156C331.979 205.467 330.983 205.931 330.034 206.535C329.154 207.1 328.3 207.805 327.497 208.631C326.75 209.402 326.056 210.277 325.435 211.227C324.265 213.021 323.361 215.07 322.748 217.317C322.467 218.356 322.249 219.463 322.1 220.604C321.958 221.699 321.885 222.826 321.883 223.953C321.886 225.081 321.96 226.208 322.103 227.3C322.251 228.44 322.47 229.546 322.753 230.587C323.367 232.833 324.272 234.881 325.443 236.673C326.064 237.622 326.758 238.495 327.506 239.266C328.31 240.093 329.162 240.797 330.042 241.359C330.984 241.958 331.98 242.419 332.998 242.732C334.045 243.055 335.125 243.221 336.206 243.227C337.283 243.222 338.362 243.057 339.409 242.736C340.43 242.423 341.426 241.961 342.37 241.363C343.248 240.803 344.103 240.099 344.909 239.272C345.658 238.502 346.353 237.629 346.976 236.68C348.148 234.888 349.056 232.839 349.673 230.59C350.247 228.487 350.541 226.253 350.545 223.951C350.541 221.651 350.25 219.416 349.678 217.31C349.062 215.062 348.155 213.011 346.983 211.218C346.362 210.268 345.666 209.394 344.916 208.622C344.114 207.798 343.259 207.093 342.376 206.527C341.427 205.924 340.43 205.462 339.416 205.151C338.365 204.83 337.285 204.666 336.203 204.662L336.202 204.665Z" fill="#63A1B3"/>
<path d="M318.508 216.064L323.062 216.027L327.616 216.006L336.725 215.989L345.833 216.007L350.387 216.03L354.941 216.07C354.949 216.07 354.954 216.076 354.954 216.084C354.954 216.084 354.948 216.097 354.941 216.097L350.387 216.137L345.833 216.159L336.725 216.178L327.616 216.161L323.062 216.14L318.508 216.103C318.497 216.103 318.488 216.094 318.488 216.094C318.488 216.072 318.497 216.062 318.508 216.062V216.064Z" fill="#63A1B3"/>
<path d="M336.724 216.703L323.058 216.665L318.286 216.626L317.967 216.306L317.966 216.073L317.978 215.561L318.502 215.541L327.612 215.484L336.722 215.467L350.388 215.509L355.46 215.554L355.473 216.608L354.939 216.621L345.834 216.684L336.724 216.703Z" fill="#63A1B3"/>
<path d="M323.792 208.396C324.87 208.379 325.948 208.372 327.025 208.359L330.258 208.339C331.336 208.33 332.414 208.331 333.492 208.328L336.725 208.322L343.191 208.341L346.425 208.364C347.503 208.377 348.581 208.385 349.659 208.403L349.672 208.409C349.672 208.424 349.666 208.43 349.666 208.43C348.581 208.449 347.503 208.457 346.425 208.47L343.191 208.492L336.725 208.511L333.492 208.504C332.414 208.502 331.336 208.503 330.258 208.494L327.025 208.473C325.947 208.461 324.869 208.453 323.792 208.436C323.781 208.436 323.772 208.427 323.772 208.416C323.772 208.406 323.781 208.396 323.792 208.396Z" fill="#63A1B3"/>
<path d="M336.725 209.034L332.651 209.026C331.852 209.026 331.052 209.024 330.252 209.017L325.941 208.985C325.221 208.978 324.501 208.971 323.782 208.959L323.27 208.951L323.25 207.892L323.782 207.873C324.478 207.862 325.174 207.855 325.871 207.848L330.253 207.816C331.012 207.809 331.771 207.808 332.531 207.807L336.722 207.798L347.604 207.853C348.291 207.86 348.978 207.867 349.665 207.879L350.195 207.889L350.172 208.94L349.656 208.953C348.945 208.965 348.225 208.973 347.506 208.981L343.193 209.016L336.725 209.035V209.034Z" fill="#63A1B3"/>
<path d="M316.924 223.733L321.874 223.696L326.823 223.675L336.723 223.658L346.622 223.677L351.573 223.7L356.522 223.74C356.529 223.74 356.536 223.746 356.535 223.754C356.535 223.754 356.529 223.767 356.522 223.767L351.573 223.807L346.622 223.83L336.723 223.848L326.823 223.831L321.874 223.81L316.924 223.773C316.912 223.773 316.904 223.763 316.904 223.753C316.904 223.741 316.912 223.733 316.924 223.733Z" fill="#63A1B3"/>
<path d="M336.722 224.372L321.87 224.334L316.402 224.292L316.382 223.23L316.918 223.21L326.819 223.152L336.72 223.136L351.573 223.177L356.742 223.218L357.057 223.54L357.036 224.277L356.52 224.29L346.622 224.353L336.722 224.372Z" fill="#63A1B3"/>
<path d="M318.508 231.403L323.062 231.365L327.616 231.345L336.725 231.327L345.833 231.346L350.387 231.369L354.941 231.409C354.949 231.409 354.954 231.415 354.954 231.415C354.954 231.429 354.948 231.435 354.941 231.435L350.387 231.475L345.833 231.498L336.725 231.517L327.616 231.499L323.062 231.479L318.508 231.442C318.497 231.442 318.488 231.432 318.488 231.422C318.488 231.41 318.497 231.402 318.508 231.402V231.403Z" fill="#63A1B3"/>
<path d="M336.724 232.04L323.058 232.002L318.286 231.964L317.967 231.645L317.966 231.41L317.978 230.899L318.502 230.88L327.612 230.822L336.722 230.804L350.388 230.846L355.46 230.891L355.473 231.946L354.939 231.959L345.834 232.022L336.724 232.04Z" fill="#63A1B3"/>
<path d="M350.309 239.162H324.442C324.404 239.162 324.373 239.131 324.373 239.092C324.373 239.053 324.404 239.022 324.442 239.022H350.309C350.347 239.022 350.378 239.053 350.378 239.092C350.378 239.131 350.347 239.162 350.309 239.162Z" fill="#63A1B3"/>
<path d="M350.307 239.684H324.441C324.116 239.684 323.851 239.418 323.851 239.091C323.851 238.764 324.116 238.498 324.441 238.498H350.307C350.632 238.498 350.897 238.764 350.897 239.091C350.897 239.418 350.632 239.684 350.307 239.684Z" fill="#63A1B3"/>
</g>
<path d="M114.545 156.96C133.203 156.96 148.328 141.812 148.328 123.126C148.328 104.44 133.203 89.2925 114.545 89.2925C95.887 89.2925 80.7617 104.44 80.7617 123.126C80.7617 141.812 95.887 156.96 114.545 156.96Z" fill="#E0F4FA"/>
<path d="M135.666 135.499C135.666 137.901 133.721 139.847 131.324 139.847H99.4936C97.0953 139.847 95.1519 137.901 95.1519 135.499V111.445C95.1519 109.044 97.0962 107.097 99.4936 107.097H131.324C133.722 107.097 135.666 109.044 135.666 111.445V135.499ZM132.483 111.768C132.483 110.949 131.82 110.286 131.002 110.286H98.9474C98.1292 110.286 97.4664 110.949 97.4664 111.768V135.177C97.4664 135.995 98.1292 136.659 98.9474 136.659H131.002C131.82 136.659 132.483 135.995 132.483 135.177V111.768Z" fill="#63A1B3"/>
<path d="M115.072 123.768C114.782 123.768 114.492 123.68 114.245 123.503L96.3425 110.789C95.6978 110.33 95.5459 109.436 96.0033 108.791C96.4607 108.145 97.3539 107.993 97.9977 108.451L115.072 120.578L131.923 108.59C132.568 108.131 133.46 108.283 133.918 108.929C134.375 109.573 134.224 110.468 133.58 110.926L115.901 123.502C115.652 123.679 115.362 123.767 115.072 123.767V123.768Z" fill="#63A1B3"/>
<path d="M97.3938 138.298L96.9718 135.464L97.1694 136.883L95.9707 136.102C96.3021 135.57 102.758 124.259 107.018 116.787C107.41 116.099 108.282 115.86 108.97 116.253C109.656 116.645 109.895 117.52 109.504 118.207C109.504 118.207 106.742 123.052 103.974 127.898C102.59 130.322 101.205 132.746 100.163 134.564C98.7784 136.98 97.8555 138.225 97.3947 138.298H97.3938Z" fill="#63A1B3"/>
<path d="M132.643 138.298C132.182 138.225 131.259 136.98 129.874 134.564C128.833 132.746 127.447 130.322 126.063 127.898C123.297 123.052 120.534 118.207 120.534 118.207C120.142 117.52 120.381 116.645 121.067 116.253C121.754 115.86 122.628 116.099 123.02 116.787C127.279 124.26 133.736 135.57 134.067 136.102L132.868 136.883L132.644 138.298H132.643Z" fill="#63A1B3"/>
<path d="M226.885 102.599C245.543 102.599 260.668 87.4512 260.668 68.7652C260.668 50.0792 245.543 34.9312 226.885 34.9312C208.227 34.9312 193.102 50.0792 193.102 68.7652C193.102 87.4512 208.227 102.599 226.885 102.599Z" fill="#E0F4FA"/>
<g opacity="0.92">
<path d="M218.678 70.7546C218.678 73.7425 216.259 76.9672 213.276 76.9672C210.293 76.9672 207.875 73.7417 207.875 70.7546C207.875 67.7676 210.293 65.6475 213.276 65.6475C216.259 65.6475 218.678 67.7667 218.678 70.7546Z" fill="#63A1B3"/>
<path d="M206.574 88.4702H219.759C221.147 88.4702 222.376 87.5722 222.799 86.2481L223.508 84.0269C224.028 82.4011 223.183 80.6397 221.582 80.0537C216.216 78.0891 210.667 78.3406 204.983 80.2352C203.391 80.7658 202.507 82.472 202.946 84.0934L203.493 86.1107C203.87 87.5031 205.132 88.4702 206.573 88.4702H206.574Z" fill="#63A1B3"/>
</g>
<g opacity="0.92">
<path d="M244.542 71.379C244.542 74.3669 242.124 77.5917 239.14 77.5917C236.157 77.5917 233.739 74.3661 233.739 71.379C233.739 68.392 236.157 66.2719 239.14 66.2719C242.124 66.2719 244.542 68.3912 244.542 71.379Z" fill="#63A1B3"/>
<path d="M232.438 89.0947H245.624C247.011 89.0947 248.24 88.1967 248.663 86.8725L249.373 84.6513C249.892 83.0255 249.047 81.2641 247.446 80.6781C242.08 78.7127 236.531 78.965 230.847 80.8596C229.255 81.3903 228.371 83.0964 228.811 84.7178L229.357 86.7351C229.734 88.1275 230.997 89.0947 232.437 89.0947H232.438Z" fill="#63A1B3"/>
</g>
<g opacity="0.92">
<path d="M232.701 45.4737C232.701 48.4616 230.282 51.6863 227.299 51.6863C224.316 51.6863 221.897 48.4607 221.897 45.4737C221.897 42.4866 224.316 40.3665 227.299 40.3665C230.282 40.3665 232.701 42.4858 232.701 45.4737Z" fill="#63A1B3"/>
<path d="M220.597 63.1893H233.782C235.17 63.1893 236.399 62.2913 236.822 60.9672L237.531 58.7459C238.051 57.1201 237.206 55.3587 235.605 54.7727C230.239 52.8081 224.69 53.0597 219.006 54.9542C217.414 55.4849 216.53 57.191 216.969 58.8125L217.516 60.8297C217.893 62.2221 219.155 63.1893 220.596 63.1893H220.597Z" fill="#63A1B3"/>
</g>
<path d="M114.416 265.645C133.074 265.645 148.199 250.497 148.199 231.811C148.199 213.125 133.074 197.977 114.416 197.977C95.7581 197.977 80.6328 213.125 80.6328 231.811C80.6328 250.497 95.7581 265.645 114.416 265.645Z" fill="#E0F4FA"/>
<path d="M111.17 209.721C102.418 208.727 94.5328 214.898 93.5585 223.505C92.5833 232.112 98.8875 239.895 107.639 240.889C116.391 241.883 124.276 235.712 125.251 227.106C126.226 218.499 119.922 210.716 111.17 209.721ZM107.899 238.6C100.433 237.752 95.0549 231.112 95.886 223.769C96.7179 216.427 103.444 211.163 110.911 212.011C118.377 212.858 123.755 219.499 122.924 226.841C122.092 234.183 115.366 239.448 107.899 238.6Z" fill="#63A1B3"/>
<path d="M117.9 236.159L134.229 252.977C134.914 253.682 136.388 253.673 137.428 252.956L137.599 252.838C138.519 252.204 138.71 251.222 138.025 250.649L119.456 235.141L117.901 236.159H117.9Z" fill="#63A1B3"/>
<path d="M328.783 149.498C347.441 149.498 362.567 134.35 362.567 115.664C362.567 96.9781 347.441 81.8301 328.783 81.8301C310.125 81.8301 295 96.9781 295 115.664C295 134.35 310.125 149.498 328.783 149.498Z" fill="#E0F4FA"/>
<path d="M315.071 132.196C314.552 132.165 314.115 132.131 313.768 132.103C313.176 132.056 312.716 131.589 312.676 130.994C312.636 130.395 313.033 129.869 313.618 129.741C316.753 129.063 320.202 127.796 322.75 126.757C311.005 125.076 309.017 118.862 308.73 116.057C308.005 108.985 314.553 101.429 323.327 99.2148C332.281 96.9572 341.119 98.5034 345.846 103.155C348.357 105.628 350.966 110.228 349.127 118.11C345.688 132.858 322.412 132.643 315.071 132.197V132.196ZM313.942 129.961H313.945C313.945 129.961 313.943 129.961 313.942 129.961ZM331.347 125.169L327.482 127.03C327.278 127.127 323.876 128.756 319.772 130.189C328.917 130.192 344.489 128.55 347.038 117.62C348.331 112.072 347.424 107.72 344.342 104.687C339.56 99.9797 330.606 99.5942 323.851 101.297C316.202 103.228 310.254 109.885 310.863 115.836C311.416 121.238 317.317 124.6 327.062 124.987L331.346 125.168L331.347 125.169Z" fill="#63A1B3"/>
<path d="M341.623 108.039H318.251C318.073 108.039 317.928 108.184 317.928 108.363V109.889C317.928 110.068 318.073 110.213 318.251 110.213H341.623C341.802 110.213 341.947 110.068 341.947 109.889V108.363C341.947 108.184 341.802 108.039 341.623 108.039Z" fill="#63A1B3"/>
<path d="M343.937 114.125H314.199C314.02 114.125 313.875 114.27 313.875 114.449V115.974C313.875 116.153 314.02 116.299 314.199 116.299H343.937C344.116 116.299 344.261 116.153 344.261 115.974V114.449C344.261 114.27 344.116 114.125 343.937 114.125Z" fill="#63A1B3"/>
<path d="M224.385 327.762C243.043 327.762 258.168 312.614 258.168 293.928C258.168 275.242 243.043 260.094 224.385 260.094C205.727 260.094 190.602 275.242 190.602 293.928C190.602 312.614 205.727 327.762 224.385 327.762Z" fill="#E0F4FA"/>
<path d="M223.422 302.29C228.682 302.29 232.947 298.019 232.947 292.751C232.947 287.483 228.682 283.212 223.422 283.212C218.161 283.212 213.896 287.483 213.896 292.751C213.896 298.019 218.161 302.29 223.422 302.29Z" fill="#63A1B3"/>
<path d="M219.675 277.965C221.098 275.351 220.136 272.076 217.526 270.65C214.915 269.225 211.645 270.189 210.222 272.803C208.799 275.418 209.761 278.692 212.372 280.118C214.982 281.543 218.252 280.579 219.675 277.965Z" fill="#63A1B3"/>
<path d="M209.001 308.144C211.718 305.423 211.718 301.011 209.001 298.289C206.284 295.568 201.879 295.568 199.161 298.289C196.444 301.011 196.444 305.423 199.161 308.144C201.879 310.865 206.284 310.865 209.001 308.144Z" fill="#63A1B3"/>
<path d="M248.679 290.486C251.655 287.505 251.655 282.673 248.679 279.693C245.703 276.712 240.878 276.712 237.902 279.693C234.926 282.673 234.926 287.505 237.902 290.486C240.878 293.466 245.703 293.466 248.679 290.486Z" fill="#63A1B3"/>
<path d="M237.294 315.475C239.585 313.18 239.585 309.458 237.294 307.163C235.002 304.868 231.286 304.868 228.994 307.163C226.703 309.458 226.703 313.18 228.994 315.475C231.286 317.77 235.002 317.77 237.294 315.475Z" fill="#63A1B3"/>
<path d="M231.902 311.152L221.738 293.554L221.715 293.5L214.023 275.8L215.88 274.99L223.55 292.638L233.656 310.136L231.902 311.152Z" fill="#63A1B3"/>
<path d="M205.286 304.52L204.126 302.857L222.484 290.017L243.465 283.304L244.082 285.237L223.392 291.856L205.286 304.52Z" fill="#63A1B3"/>
<path d="M278.437 211.256L277.571 214.397L270.725 239.135L269.261 244.411C268.706 244.636 268.161 244.838 267.606 245.009C258.003 248.054 249.287 242.959 249.287 242.959L251.338 235.781L252.62 231.305L258.11 212.079L260.118 205.04L278.447 211.267L278.437 211.256Z" fill="#F44149"/>
<path d="M278.434 211.256L277.569 214.386L258.097 212.057L260.105 205.018L278.434 211.256Z" fill="#C81E37"/>
<path d="M270.727 239.124L269.263 244.4C268.708 244.625 268.163 244.828 267.608 244.998C259.714 244.315 254.138 239.092 251.34 235.77L252.622 231.294C257.791 235.043 266.187 237.81 270.727 239.124Z" fill="#C81E37"/>
<path d="M207.394 115.84C207.394 115.84 188.937 126.724 179.452 154.421C168.813 185.504 176.984 204.826 176.984 204.826C176.984 204.826 197.407 193.312 207.394 169.097C217.381 144.882 207.394 115.84 207.394 115.84Z" fill="#C81E37"/>
<path d="M226.021 163.905C227.933 171.083 225.999 176.734 219.815 180.707L188.636 169.193C186.553 162.058 188.614 156.45 194.842 152.391L226.021 163.905Z" fill="#FDB105"/>
<path d="M188.627 169.204C183.511 165.508 187.655 153.011 194.833 152.402C194.833 152.402 199.149 154.997 196.318 162.549C193.445 170.218 188.627 169.204 188.627 169.204Z" fill="#F3970D"/>
<path d="M285.85 191.036C285.808 191.207 285.754 191.368 285.711 191.538C282.774 201.76 271.836 207.39 261.732 204.078C261.625 204.046 261.507 204.004 261.401 203.972C258.987 203.192 256.284 202.391 253.326 201.622C250.912 201.002 248.337 200.404 245.603 199.859C233.416 197.445 218.205 196.121 201.596 198.524C197.377 199.133 193.072 199.987 188.703 201.12C187.614 201.397 186.524 201.696 185.435 202.017C182.647 202.829 179.827 203.758 176.997 204.815C206.071 179.682 215.118 149.753 207.406 115.829C209.244 118.798 211.166 121.618 213.164 124.299C213.623 124.919 214.093 125.538 214.574 126.158C230.564 146.752 250.666 158.544 265.673 165.017C268.098 166.063 270.384 166.971 272.499 167.751C272.99 167.933 273.481 168.104 273.951 168.274C283.265 171.586 288.457 181.498 285.84 191.026L285.85 191.036Z" fill="#F44149"/>
<path d="M215.084 152.477C213.952 162.795 211.196 172.13 206.891 180.206C202.448 188.558 196.338 195.565 188.69 201.13C187.601 201.408 186.511 201.707 185.422 202.028C205.898 188.644 212.275 167.794 213.973 152.391C215.298 140.353 214.059 129.736 213.161 124.31C213.621 124.93 214.091 125.549 214.571 126.169C215.415 132.043 216.27 141.699 215.084 152.487V152.477Z" fill="#C81E37"/>
<path d="M230.787 193.13C214.925 192.308 201.947 198.396 201.595 198.524C218.204 196.121 233.404 197.446 245.602 199.86C246.115 199.956 246.617 200.063 247.119 200.169C247.364 200.223 247.61 200.276 247.845 200.33C248.101 200.383 248.358 200.436 248.603 200.5C248.913 200.565 249.223 200.639 249.522 200.703C249.554 200.703 249.586 200.714 249.618 200.725C249.896 200.789 250.174 200.853 250.441 200.917C251.423 201.152 252.385 201.387 253.314 201.622C256.273 202.391 258.975 203.181 261.389 203.972L267.947 196.527C267.947 196.527 275.35 178.978 272.508 167.762C270.393 166.982 268.097 166.074 265.683 165.028C264.818 167.399 263.6 170.507 262.073 173.968C256.764 185.963 244.737 193.654 231.631 193.173C231.353 193.173 231.075 193.152 230.798 193.141L230.787 193.13Z" fill="#C81E37"/>
<path d="M295.504 181.359L286.767 206.92C285.09 211.822 279.749 214.439 274.847 212.773L256.742 206.589C254.232 205.734 253.131 202.797 254.456 200.49C260.245 190.417 264.069 179.127 265.928 166.619C266.312 164.013 268.961 162.378 271.461 163.233L289.651 169.449C293.368 170.721 295.771 174.085 295.985 177.77C295.985 177.77 295.985 177.77 295.985 177.792C296.049 178.967 295.9 180.174 295.494 181.359H295.504Z" fill="#FDB105"/>
<path d="M295.504 181.359L286.767 206.92C285.09 211.822 279.749 214.439 274.847 212.773L256.742 206.588C254.232 205.734 253.131 202.796 254.456 200.489C254.456 200.489 267.712 209.098 279.429 205.68C288.391 203.064 295.985 177.77 295.985 177.77C295.985 177.77 295.985 177.77 295.985 177.791C296.049 178.966 295.9 180.173 295.494 181.359H295.504Z" fill="#F3970D"/>
<path d="M285.206 180.003C285.141 180.003 285.077 180.003 285.013 179.971L274.716 176.809C274.364 176.702 274.172 176.328 274.278 175.976C274.385 175.623 274.759 175.431 275.112 175.538L285.408 178.699C285.761 178.806 285.953 179.18 285.846 179.533C285.761 179.821 285.494 180.003 285.216 180.003H285.206Z" fill="#F3970D"/>
<path d="M283.603 185.055C283.539 185.055 283.475 185.055 283.411 185.023L273.114 181.861C272.762 181.754 272.57 181.381 272.676 181.028C272.783 180.676 273.157 180.483 273.51 180.59L283.806 183.752C284.159 183.859 284.351 184.232 284.244 184.585C284.159 184.873 283.892 185.055 283.614 185.055H283.603Z" fill="#F3970D"/>
<path d="M281.975 190.332C281.91 190.332 281.846 190.332 281.782 190.3L271.485 187.138C271.133 187.031 270.941 186.657 271.048 186.305C271.154 185.952 271.528 185.76 271.881 185.867L282.178 189.029C282.53 189.135 282.722 189.509 282.615 189.862C282.53 190.15 282.263 190.332 281.985 190.332H281.975Z" fill="#F3970D"/>
<path d="M150 148.712L164.796 152.741L164.482 147.048L181.314 156.809L167.586 152.133L169.397 157.741L150 148.712Z" fill="#FDD14F"/>
<path d="M175.275 111L180.3 121.008L183.168 118.169L186.129 131.976L181.973 122.255L179.866 125.88L175.275 111Z" fill="#FDD14F"/>
<path d="M159.45 197.589L169.927 190.307L171.259 194.712L181.738 182.505L172.285 189.966L172.146 185.2L159.45 197.589Z" fill="#FDD14F"/>
<g clip-path="url(#clip0_501_21597)">
<rect x="22.8242" y="383" width="181.116" height="44.0581" rx="22.029" fill="#F5F4F6"/>
<rect x="32.4475" y="390.217" width="161.87" height="29.6232" rx="14.8116" fill="#F56687"/>
<path d="M60.8601 399.274V411.029H58.5024V403.383L55.3532 411.029H53.5681L50.402 403.383V411.029H48.0443V399.274H50.722L54.4606 408.014L58.1992 399.274H60.8601ZM71.5633 406.162C71.5633 406.498 71.5408 406.802 71.4959 407.071H64.6754C64.7316 407.745 64.9673 408.272 65.3827 408.654C65.7981 409.036 66.309 409.227 66.9152 409.227C67.791 409.227 68.4141 408.85 68.7846 408.098H71.3275C71.058 408.996 70.5416 409.737 69.7782 410.321C69.0147 410.894 68.0772 411.18 66.9658 411.18C66.0676 411.18 65.2592 410.984 64.5407 410.591C63.8334 410.187 63.2777 409.62 62.8735 408.89C62.4805 408.16 62.2841 407.318 62.2841 406.364C62.2841 405.398 62.4805 404.551 62.8735 403.821C63.2664 403.091 63.8166 402.53 64.5239 402.137C65.2312 401.744 66.0451 401.547 66.9658 401.547C67.8527 401.547 68.6442 401.738 69.3403 402.12C70.0476 402.502 70.5921 403.046 70.9738 403.753C71.3668 404.449 71.5633 405.252 71.5633 406.162ZM69.1214 405.488C69.1101 404.882 68.8912 404.399 68.4646 404.04C68.0379 403.669 67.5159 403.484 66.8984 403.484C66.3146 403.484 65.8206 403.664 65.4164 404.023C65.0235 404.371 64.7821 404.859 64.6923 405.488H69.1214ZM72.3772 406.33C72.3772 405.387 72.5624 404.551 72.9329 403.821C73.3146 403.091 73.8311 402.53 74.4823 402.137C75.1334 401.744 75.8576 401.547 76.6547 401.547C77.261 401.547 77.8392 401.682 78.3893 401.951C78.9394 402.21 79.3773 402.558 79.7029 402.996V398.566H82.0942V411.029H79.7029V409.648C79.411 410.108 79.0012 410.478 78.4735 410.759C77.9458 411.04 77.3339 411.18 76.6379 411.18C75.852 411.18 75.1334 410.978 74.4823 410.574C73.8311 410.17 73.3146 409.603 72.9329 408.873C72.5624 408.132 72.3772 407.284 72.3772 406.33ZM79.7197 406.364C79.7197 405.791 79.6074 405.303 79.3829 404.899C79.1583 404.483 78.8552 404.169 78.4735 403.955C78.0918 403.731 77.682 403.619 77.2441 403.619C76.8063 403.619 76.4021 403.725 76.0316 403.939C75.6611 404.152 75.358 404.466 75.1222 404.882C74.8977 405.286 74.7854 405.769 74.7854 406.33C74.7854 406.891 74.8977 407.385 75.1222 407.812C75.358 408.227 75.6611 408.547 76.0316 408.772C76.4133 408.996 76.8175 409.109 77.2441 409.109C77.682 409.109 78.0918 409.002 78.4735 408.789C78.8552 408.564 79.1583 408.25 79.3829 407.846C79.6074 407.43 79.7197 406.936 79.7197 406.364ZM85.2919 400.587C84.8765 400.587 84.5284 400.458 84.2478 400.2C83.9783 399.931 83.8436 399.599 83.8436 399.206C83.8436 398.813 83.9783 398.488 84.2478 398.23C84.5284 397.96 84.8765 397.825 85.2919 397.825C85.7073 397.825 86.0497 397.96 86.3192 398.23C86.5998 398.488 86.7402 398.813 86.7402 399.206C86.7402 399.599 86.5998 399.931 86.3192 400.2C86.0497 400.458 85.7073 400.587 85.2919 400.587ZM86.4539 401.699V411.029H84.0962V401.699H86.4539ZM87.8763 406.33C87.8763 405.387 88.0616 404.551 88.432 403.821C88.8138 403.091 89.3246 402.53 89.9645 402.137C90.6157 401.744 91.3399 401.547 92.137 401.547C92.8331 401.547 93.4393 401.688 93.9558 401.968C94.4835 402.249 94.9045 402.603 95.2188 403.029V401.699H97.5934V411.029H95.2188V409.664C94.9157 410.102 94.4947 410.467 93.9558 410.759C93.4281 411.04 92.8162 411.18 92.1202 411.18C91.3343 411.18 90.6157 410.978 89.9645 410.574C89.3246 410.17 88.8138 409.603 88.432 408.873C88.0616 408.132 87.8763 407.284 87.8763 406.33ZM95.2188 406.364C95.2188 405.791 95.1066 405.303 94.882 404.899C94.6575 404.483 94.3543 404.169 93.9726 403.955C93.5909 403.731 93.1811 403.619 92.7433 403.619C92.3054 403.619 91.9012 403.725 91.5307 403.939C91.1602 404.152 90.8571 404.466 90.6213 404.882C90.3968 405.286 90.2845 405.769 90.2845 406.33C90.2845 406.891 90.3968 407.385 90.6213 407.812C90.8571 408.227 91.1602 408.547 91.5307 408.772C91.9124 408.996 92.3166 409.109 92.7433 409.109C93.1811 409.109 93.5909 409.002 93.9726 408.789C94.3543 408.564 94.6575 408.25 94.882 407.846C95.1066 407.43 95.2188 406.936 95.2188 406.364ZM109.37 411.029L106.777 406.448H105.665V411.029H103.307V399.274H107.72C108.629 399.274 109.404 399.437 110.044 399.762C110.684 400.077 111.161 400.509 111.475 401.059C111.801 401.598 111.964 402.204 111.964 402.878C111.964 403.652 111.739 404.354 111.29 404.983C110.841 405.6 110.173 406.027 109.286 406.263L112.098 411.029H109.37ZM105.665 404.68H107.635C108.275 404.68 108.753 404.528 109.067 404.225C109.381 403.911 109.538 403.478 109.538 402.928C109.538 402.389 109.381 401.974 109.067 401.682C108.753 401.379 108.275 401.227 107.635 401.227H105.665V404.68ZM122.468 406.162C122.468 406.498 122.446 406.802 122.401 407.071H115.58C115.636 407.745 115.872 408.272 116.288 408.654C116.703 409.036 117.214 409.227 117.82 409.227C118.696 409.227 119.319 408.85 119.689 408.098H122.232C121.963 408.996 121.447 409.737 120.683 410.321C119.92 410.894 118.982 411.18 117.871 411.18C116.973 411.18 116.164 410.984 115.446 410.591C114.738 410.187 114.183 409.62 113.778 408.89C113.385 408.16 113.189 407.318 113.189 406.364C113.189 405.398 113.385 404.551 113.778 403.821C114.171 403.091 114.721 402.53 115.429 402.137C116.136 401.744 116.95 401.547 117.871 401.547C118.758 401.547 119.549 401.738 120.245 402.12C120.953 402.502 121.497 403.046 121.879 403.753C122.272 404.449 122.468 405.252 122.468 406.162ZM120.026 405.488C120.015 404.882 119.796 404.399 119.369 404.04C118.943 403.669 118.421 403.484 117.803 403.484C117.22 403.484 116.726 403.664 116.321 404.023C115.928 404.371 115.687 404.859 115.597 405.488H120.026ZM126.246 398.566V411.029H123.888V398.566H126.246ZM127.668 406.33C127.668 405.387 127.854 404.551 128.224 403.821C128.606 403.091 129.117 402.53 129.757 402.137C130.408 401.744 131.132 401.547 131.929 401.547C132.625 401.547 133.231 401.688 133.748 401.968C134.276 402.249 134.697 402.603 135.011 403.029V401.699H137.386V411.029H135.011V409.664C134.708 410.102 134.287 410.467 133.748 410.759C133.22 411.04 132.608 411.18 131.912 411.18C131.126 411.18 130.408 410.978 129.757 410.574C129.117 410.17 128.606 409.603 128.224 408.873C127.854 408.132 127.668 407.284 127.668 406.33ZM135.011 406.364C135.011 405.791 134.899 405.303 134.674 404.899C134.45 404.483 134.146 404.169 133.765 403.955C133.383 403.731 132.973 403.619 132.535 403.619C132.098 403.619 131.693 403.725 131.323 403.939C130.952 404.152 130.649 404.466 130.413 404.882C130.189 405.286 130.077 405.769 130.077 406.33C130.077 406.891 130.189 407.385 130.413 407.812C130.649 408.227 130.952 408.547 131.323 408.772C131.705 408.996 132.109 409.109 132.535 409.109C132.973 409.109 133.383 409.002 133.765 408.789C134.146 408.564 134.45 408.25 134.674 407.846C134.899 407.43 135.011 406.936 135.011 406.364ZM142.133 403.636V408.149C142.133 408.463 142.205 408.693 142.351 408.839C142.509 408.974 142.767 409.041 143.126 409.041H144.221V411.029H142.739C140.752 411.029 139.758 410.063 139.758 408.132V403.636H138.646V401.699H139.758V399.392H142.133V401.699H144.221V403.636H142.133ZM146.811 400.587C146.396 400.587 146.048 400.458 145.767 400.2C145.498 399.931 145.363 399.599 145.363 399.206C145.363 398.813 145.498 398.488 145.767 398.23C146.048 397.96 146.396 397.825 146.811 397.825C147.227 397.825 147.569 397.96 147.839 398.23C148.119 398.488 148.26 398.813 148.26 399.206C148.26 399.599 148.119 399.931 147.839 400.2C147.569 400.458 147.227 400.587 146.811 400.587ZM147.973 401.699V411.029H145.616V401.699H147.973ZM154.145 411.18C153.247 411.18 152.438 410.984 151.72 410.591C151.001 410.187 150.434 409.62 150.019 408.89C149.615 408.16 149.413 407.318 149.413 406.364C149.413 405.409 149.62 404.567 150.036 403.838C150.462 403.108 151.041 402.546 151.77 402.154C152.5 401.749 153.314 401.547 154.212 401.547C155.111 401.547 155.924 401.749 156.654 402.154C157.384 402.546 157.957 403.108 158.372 403.838C158.799 404.567 159.012 405.409 159.012 406.364C159.012 407.318 158.793 408.16 158.355 408.89C157.929 409.62 157.345 410.187 156.604 410.591C155.874 410.984 155.054 411.18 154.145 411.18ZM154.145 409.126C154.572 409.126 154.97 409.025 155.341 408.822C155.722 408.609 156.026 408.295 156.25 407.879C156.475 407.464 156.587 406.959 156.587 406.364C156.587 405.477 156.351 404.798 155.88 404.326C155.419 403.843 154.852 403.602 154.179 403.602C153.505 403.602 152.938 403.843 152.478 404.326C152.029 404.798 151.804 405.477 151.804 406.364C151.804 407.251 152.023 407.935 152.461 408.418C152.91 408.89 153.471 409.126 154.145 409.126ZM165.611 401.564C166.722 401.564 167.62 401.918 168.305 402.625C168.99 403.321 169.333 404.298 169.333 405.555V411.029H166.975V405.875C166.975 405.134 166.79 404.567 166.419 404.174C166.049 403.77 165.543 403.568 164.903 403.568C164.252 403.568 163.736 403.77 163.354 404.174C162.984 404.567 162.798 405.134 162.798 405.875V411.029H160.441V401.699H162.798V402.861C163.113 402.457 163.511 402.142 163.994 401.918C164.488 401.682 165.027 401.564 165.611 401.564ZM174.844 411.18C174.081 411.18 173.396 411.045 172.789 410.776C172.183 410.495 171.7 410.119 171.341 409.648C170.993 409.176 170.802 408.654 170.769 408.081H173.143C173.188 408.441 173.362 408.738 173.665 408.974C173.98 409.21 174.367 409.328 174.827 409.328C175.276 409.328 175.624 409.238 175.871 409.058C176.13 408.879 176.259 408.648 176.259 408.368C176.259 408.065 176.101 407.84 175.787 407.694C175.484 407.537 174.996 407.369 174.322 407.189C173.626 407.02 173.053 406.846 172.604 406.667C172.166 406.487 171.785 406.212 171.459 405.842C171.145 405.471 170.988 404.972 170.988 404.343C170.988 403.826 171.133 403.355 171.425 402.928C171.729 402.502 172.155 402.165 172.705 401.918C173.267 401.671 173.923 401.547 174.676 401.547C175.787 401.547 176.674 401.828 177.336 402.389C177.999 402.939 178.364 403.686 178.431 404.629H176.174C176.141 404.259 175.984 403.967 175.703 403.753C175.433 403.529 175.069 403.417 174.608 403.417C174.182 403.417 173.85 403.495 173.615 403.652C173.39 403.81 173.278 404.028 173.278 404.309C173.278 404.623 173.435 404.865 173.749 405.033C174.064 405.19 174.552 405.353 175.215 405.522C175.888 405.69 176.444 405.864 176.882 406.044C177.32 406.223 177.696 406.504 178.01 406.886C178.336 407.256 178.504 407.75 178.515 408.368C178.515 408.907 178.364 409.389 178.061 409.816C177.769 410.243 177.342 410.579 176.781 410.826C176.231 411.062 175.585 411.18 174.844 411.18Z" fill="white"/>
<rect x="212" y="432" width="245.792" height="69.129" rx="34.5645" fill="#F5F4F6"/>
<rect x="227.362" y="443.522" width="215.086" height="46.362" rx="23.181" fill="#FF8A6E"/>
<path d="M258.739 476.391C257.43 476.391 256.247 476.167 255.19 475.719C254.151 475.271 253.326 474.625 252.717 473.783C252.107 472.941 251.794 471.946 251.776 470.799H255.808C255.862 471.57 256.131 472.179 256.615 472.627C257.117 473.075 257.798 473.299 258.658 473.299C259.536 473.299 260.226 473.093 260.728 472.681C261.23 472.251 261.481 471.695 261.481 471.014C261.481 470.458 261.311 470.001 260.97 469.643C260.629 469.284 260.199 469.007 259.68 468.81C259.178 468.594 258.479 468.361 257.583 468.111C256.364 467.752 255.369 467.403 254.599 467.062C253.846 466.704 253.192 466.175 252.636 465.476C252.098 464.759 251.83 463.809 251.83 462.626C251.83 461.515 252.107 460.547 252.663 459.723C253.219 458.898 253.998 458.271 255.002 457.841C256.006 457.393 257.153 457.169 258.443 457.169C260.379 457.169 261.947 457.644 263.148 458.594C264.366 459.526 265.038 460.834 265.164 462.519H261.024C260.988 461.874 260.71 461.345 260.19 460.933C259.689 460.503 259.016 460.287 258.174 460.287C257.439 460.287 256.848 460.476 256.4 460.852C255.97 461.228 255.755 461.775 255.755 462.492C255.755 462.994 255.916 463.415 256.239 463.755C256.579 464.078 256.991 464.347 257.475 464.562C257.977 464.759 258.676 464.992 259.572 465.261C260.791 465.619 261.785 465.978 262.556 466.336C263.327 466.695 263.99 467.232 264.546 467.949C265.101 468.666 265.379 469.607 265.379 470.772C265.379 471.776 265.119 472.708 264.599 473.568C264.08 474.428 263.318 475.118 262.314 475.638C261.311 476.14 260.119 476.391 258.739 476.391ZM274.775 476.444C273.341 476.444 272.051 476.131 270.904 475.504C269.757 474.858 268.852 473.953 268.189 472.788C267.544 471.623 267.221 470.279 267.221 468.756C267.221 467.232 267.552 465.888 268.216 464.723C268.897 463.558 269.82 462.662 270.985 462.035C272.15 461.39 273.449 461.067 274.883 461.067C276.316 461.067 277.616 461.39 278.781 462.035C279.946 462.662 280.86 463.558 281.523 464.723C282.204 465.888 282.545 467.232 282.545 468.756C282.545 470.279 282.195 471.623 281.496 472.788C280.815 473.953 279.883 474.858 278.7 475.504C277.535 476.131 276.227 476.444 274.775 476.444ZM274.775 473.165C275.456 473.165 276.092 473.003 276.684 472.681C277.293 472.34 277.777 471.838 278.136 471.175C278.494 470.512 278.673 469.706 278.673 468.756C278.673 467.34 278.297 466.256 277.544 465.503C276.809 464.732 275.904 464.347 274.829 464.347C273.754 464.347 272.849 464.732 272.114 465.503C271.397 466.256 271.038 467.34 271.038 468.756C271.038 470.172 271.388 471.265 272.087 472.036C272.804 472.788 273.7 473.165 274.775 473.165ZM283.857 468.756C283.857 467.214 284.171 465.87 284.798 464.723C285.426 463.558 286.295 462.662 287.406 462.035C288.517 461.39 289.79 461.067 291.224 461.067C293.07 461.067 294.593 461.533 295.794 462.465C297.012 463.379 297.828 464.669 298.24 466.336H294.181C293.966 465.691 293.598 465.189 293.078 464.831C292.577 464.454 291.949 464.266 291.197 464.266C290.121 464.266 289.27 464.661 288.643 465.449C288.015 466.22 287.702 467.322 287.702 468.756C287.702 470.172 288.015 471.274 288.643 472.062C289.27 472.833 290.121 473.218 291.197 473.218C292.72 473.218 293.715 472.537 294.181 471.175H298.24C297.828 472.788 297.012 474.07 295.794 475.02C294.575 475.97 293.052 476.444 291.224 476.444C289.79 476.444 288.517 476.131 287.406 475.504C286.295 474.858 285.426 473.962 284.798 472.815C284.171 471.65 283.857 470.297 283.857 468.756ZM302.426 459.535C301.763 459.535 301.207 459.329 300.759 458.916C300.329 458.486 300.114 457.958 300.114 457.33C300.114 456.703 300.329 456.183 300.759 455.771C301.207 455.341 301.763 455.126 302.426 455.126C303.089 455.126 303.636 455.341 304.066 455.771C304.514 456.183 304.738 456.703 304.738 457.33C304.738 457.958 304.514 458.486 304.066 458.916C303.636 459.329 303.089 459.535 302.426 459.535ZM304.281 461.309V476.203H300.517V461.309H304.281ZM306.552 468.702C306.552 467.197 306.847 465.861 307.439 464.696C308.048 463.531 308.864 462.635 309.885 462.008C310.925 461.381 312.081 461.067 313.353 461.067C314.464 461.067 315.432 461.291 316.257 461.739C317.099 462.187 317.771 462.752 318.273 463.433V461.309H322.063V476.203H318.273V474.025C317.789 474.724 317.117 475.306 316.257 475.772C315.414 476.22 314.438 476.444 313.326 476.444C312.072 476.444 310.925 476.122 309.885 475.477C308.864 474.831 308.048 473.926 307.439 472.761C306.847 471.579 306.552 470.225 306.552 468.702ZM318.273 468.756C318.273 467.842 318.094 467.062 317.735 466.417C317.377 465.754 316.893 465.252 316.284 464.911C315.674 464.553 315.02 464.374 314.321 464.374C313.622 464.374 312.977 464.544 312.385 464.885C311.794 465.225 311.31 465.727 310.934 466.39C310.575 467.035 310.396 467.806 310.396 468.702C310.396 469.598 310.575 470.387 310.934 471.068C311.31 471.731 311.794 472.242 312.385 472.6C312.995 472.959 313.64 473.138 314.321 473.138C315.02 473.138 315.674 472.968 316.284 472.627C316.893 472.269 317.377 471.767 317.735 471.122C318.094 470.458 318.273 469.67 318.273 468.756ZM329.023 456.309V476.203H325.259V456.309H329.023ZM358.646 457.438V476.203H354.882V463.997L349.855 476.203H347.005L341.951 463.997V476.203H338.187V457.438H342.462L348.43 471.39L354.398 457.438H358.646ZM375.732 468.433C375.732 468.971 375.696 469.455 375.624 469.885H364.736C364.826 470.96 365.202 471.803 365.865 472.412C366.528 473.021 367.344 473.326 368.312 473.326C369.71 473.326 370.704 472.726 371.296 471.525H375.355C374.925 472.959 374.101 474.141 372.882 475.073C371.663 475.987 370.167 476.444 368.392 476.444C366.959 476.444 365.668 476.131 364.521 475.504C363.392 474.858 362.505 473.953 361.86 472.788C361.232 471.623 360.919 470.279 360.919 468.756C360.919 467.214 361.232 465.861 361.86 464.696C362.487 463.531 363.365 462.635 364.494 462.008C365.623 461.381 366.923 461.067 368.392 461.067C369.808 461.067 371.072 461.372 372.183 461.981C373.312 462.59 374.181 463.46 374.791 464.589C375.418 465.7 375.732 466.981 375.732 468.433ZM371.833 467.358C371.816 466.39 371.466 465.619 370.785 465.046C370.104 464.454 369.271 464.159 368.285 464.159C367.353 464.159 366.564 464.445 365.919 465.019C365.292 465.575 364.907 466.354 364.763 467.358H371.833ZM377.031 468.702C377.031 467.197 377.327 465.861 377.918 464.696C378.527 463.531 379.352 462.635 380.391 462.008C381.431 461.381 382.587 461.067 383.859 461.067C384.827 461.067 385.75 461.282 386.628 461.712C387.507 462.125 388.205 462.68 388.725 463.379V456.309H392.543V476.203H388.725V473.998C388.259 474.733 387.605 475.324 386.763 475.772C385.92 476.22 384.944 476.444 383.832 476.444C382.578 476.444 381.431 476.122 380.391 475.477C379.352 474.831 378.527 473.926 377.918 472.761C377.327 471.579 377.031 470.225 377.031 468.702ZM388.752 468.756C388.752 467.842 388.573 467.062 388.214 466.417C387.856 465.754 387.372 465.252 386.763 464.911C386.153 464.553 385.499 464.374 384.8 464.374C384.101 464.374 383.456 464.544 382.865 464.885C382.273 465.225 381.789 465.727 381.413 466.39C381.054 467.035 380.875 467.806 380.875 468.702C380.875 469.598 381.054 470.387 381.413 471.068C381.789 471.731 382.273 472.242 382.865 472.6C383.474 472.959 384.119 473.138 384.8 473.138C385.499 473.138 386.153 472.968 386.763 472.627C387.372 472.269 387.856 471.767 388.214 471.122C388.573 470.458 388.752 469.67 388.752 468.756ZM397.647 459.535C396.984 459.535 396.429 459.329 395.98 458.916C395.55 458.486 395.335 457.958 395.335 457.33C395.335 456.703 395.55 456.183 395.98 455.771C396.429 455.341 396.984 455.126 397.647 455.126C398.31 455.126 398.857 455.341 399.287 455.771C399.735 456.183 399.959 456.703 399.959 457.33C399.959 457.958 399.735 458.486 399.287 458.916C398.857 459.329 398.31 459.535 397.647 459.535ZM399.502 461.309V476.203H395.739V461.309H399.502ZM401.773 468.702C401.773 467.197 402.069 465.861 402.66 464.696C403.269 463.531 404.085 462.635 405.106 462.008C406.146 461.381 407.302 461.067 408.574 461.067C409.686 461.067 410.653 461.291 411.478 461.739C412.32 462.187 412.992 462.752 413.494 463.433V461.309H417.285V476.203H413.494V474.025C413.01 474.724 412.338 475.306 411.478 475.772C410.635 476.22 409.659 476.444 408.548 476.444C407.293 476.444 406.146 476.122 405.106 475.477C404.085 474.831 403.269 473.926 402.66 472.761C402.069 471.579 401.773 470.225 401.773 468.702ZM413.494 468.756C413.494 467.842 413.315 467.062 412.956 466.417C412.598 465.754 412.114 465.252 411.505 464.911C410.895 464.553 410.241 464.374 409.542 464.374C408.843 464.374 408.198 464.544 407.607 464.885C407.015 465.225 406.531 465.727 406.155 466.39C405.796 467.035 405.617 467.806 405.617 468.702C405.617 469.598 405.796 470.387 406.155 471.068C406.531 471.731 407.015 472.242 407.607 472.6C408.216 472.959 408.861 473.138 409.542 473.138C410.241 473.138 410.895 472.968 411.505 472.627C412.114 472.269 412.598 471.767 412.956 471.122C413.315 470.458 413.494 469.67 413.494 468.756Z" fill="white"/>
<rect x="33" y="523" width="225.657" height="54.1577" rx="27.0789" fill="#F5F4F6"/>
<rect x="45.0352" y="532.026" width="201.105" height="37.0351" rx="18.5175" fill="#F4BBEA"/>
<path d="M80.5686 542.343V557.044H77.62V547.482L73.6815 557.044H71.449L67.4895 547.482V557.044H64.5409V542.343H67.8896L72.5653 553.274L77.2409 542.343H80.5686ZM93.9542 550.957C93.9542 551.378 93.9262 551.757 93.87 552.094H85.3402C85.4104 552.937 85.7052 553.597 86.2247 554.074C86.7442 554.552 87.3831 554.79 88.1413 554.79C89.2365 554.79 90.0158 554.32 90.4791 553.379H93.6594C93.3224 554.502 92.6765 555.429 91.7217 556.159C90.767 556.875 89.5945 557.233 88.2045 557.233C87.0812 557.233 86.0703 556.988 85.1717 556.496C84.2871 555.991 83.5921 555.282 83.0866 554.369C82.5952 553.456 82.3494 552.403 82.3494 551.21C82.3494 550.002 82.5952 548.942 83.0866 548.03C83.578 547.117 84.266 546.415 85.1506 545.923C86.0352 545.432 87.0531 545.186 88.2045 545.186C89.3137 545.186 90.3036 545.425 91.1741 545.902C92.0587 546.38 92.7397 547.061 93.2171 547.945C93.7085 548.816 93.9542 549.82 93.9542 550.957ZM90.9004 550.115C90.8863 549.356 90.6125 548.753 90.079 548.303C89.5454 547.84 88.8925 547.608 88.1203 547.608C87.3901 547.608 86.7723 547.833 86.2669 548.282C85.7754 548.718 85.4735 549.328 85.3612 550.115H90.9004ZM94.9721 551.168C94.9721 549.988 95.2038 548.942 95.6672 548.03C96.1446 547.117 96.7904 546.415 97.6048 545.923C98.4192 545.432 99.3248 545.186 100.322 545.186C101.08 545.186 101.803 545.355 102.491 545.692C103.179 546.015 103.727 546.45 104.134 546.998V541.458H107.125V557.044H104.134V555.317C103.769 555.892 103.256 556.356 102.596 556.707C101.936 557.058 101.171 557.233 100.301 557.233C99.3178 557.233 98.4192 556.981 97.6048 556.475C96.7904 555.97 96.1446 555.261 95.6672 554.348C95.2038 553.421 94.9721 552.361 94.9721 551.168ZM104.155 551.21C104.155 550.494 104.014 549.883 103.734 549.377C103.453 548.858 103.074 548.465 102.596 548.198C102.119 547.917 101.606 547.777 101.059 547.777C100.511 547.777 100.006 547.91 99.5425 548.177C99.0791 548.444 98.7 548.837 98.4051 549.356C98.1243 549.862 97.9839 550.466 97.9839 551.168C97.9839 551.87 98.1243 552.488 98.4051 553.021C98.7 553.541 99.0791 553.941 99.5425 554.222C100.02 554.502 100.525 554.643 101.059 554.643C101.606 554.643 102.119 554.509 102.596 554.243C103.074 553.962 103.453 553.569 103.734 553.063C104.014 552.544 104.155 551.926 104.155 551.21ZM111.124 543.986C110.604 543.986 110.169 543.824 109.818 543.501C109.481 543.164 109.312 542.75 109.312 542.259C109.312 541.767 109.481 541.36 109.818 541.037C110.169 540.7 110.604 540.532 111.124 540.532C111.643 540.532 112.071 540.7 112.408 541.037C112.759 541.36 112.935 541.767 112.935 542.259C112.935 542.75 112.759 543.164 112.408 543.501C112.071 543.824 111.643 543.986 111.124 543.986ZM112.577 545.376V557.044H109.628V545.376H112.577ZM114.356 551.168C114.356 549.988 114.587 548.942 115.051 548.03C115.528 547.117 116.167 546.415 116.967 545.923C117.782 545.432 118.687 545.186 119.684 545.186C120.555 545.186 121.313 545.362 121.959 545.713C122.619 546.064 123.145 546.506 123.538 547.04V545.376H126.508V557.044H123.538V555.338C123.159 555.885 122.633 556.342 121.959 556.707C121.299 557.058 120.534 557.233 119.663 557.233C118.68 557.233 117.782 556.981 116.967 556.475C116.167 555.97 115.528 555.261 115.051 554.348C114.587 553.421 114.356 552.361 114.356 551.168ZM123.538 551.21C123.538 550.494 123.398 549.883 123.117 549.377C122.836 548.858 122.457 548.465 121.98 548.198C121.503 547.917 120.99 547.777 120.442 547.777C119.895 547.777 119.389 547.91 118.926 548.177C118.463 548.444 118.084 548.837 117.789 549.356C117.508 549.862 117.368 550.466 117.368 551.168C117.368 551.87 117.508 552.488 117.789 553.021C118.084 553.541 118.463 553.941 118.926 554.222C119.403 554.502 119.909 554.643 120.442 554.643C120.99 554.643 121.503 554.509 121.98 554.243C122.457 553.962 122.836 553.569 123.117 553.063C123.398 552.544 123.538 551.926 123.538 551.21ZM132.938 549.672C132.938 548.226 133.261 546.934 133.907 545.797C134.567 544.646 135.459 543.754 136.582 543.122C137.719 542.476 138.99 542.153 140.394 542.153C142.037 542.153 143.476 542.575 144.711 543.417C145.947 544.26 146.811 545.425 147.302 546.913H143.911C143.574 546.211 143.097 545.685 142.479 545.334C141.875 544.983 141.173 544.807 140.373 544.807C139.516 544.807 138.751 545.011 138.077 545.418C137.417 545.811 136.898 546.373 136.519 547.103C136.154 547.833 135.971 548.689 135.971 549.672C135.971 550.641 136.154 551.498 136.519 552.242C136.898 552.972 137.417 553.541 138.077 553.948C138.751 554.341 139.516 554.537 140.373 554.537C141.173 554.537 141.875 554.362 142.479 554.011C143.097 553.646 143.574 553.112 143.911 552.41H147.302C146.811 553.913 145.947 555.085 144.711 555.928C143.49 556.756 142.051 557.17 140.394 557.17C138.99 557.17 137.719 556.854 136.582 556.222C135.459 555.577 134.567 554.685 133.907 553.548C133.261 552.41 132.938 551.119 132.938 549.672ZM154.626 557.233C153.502 557.233 152.491 556.988 151.593 556.496C150.694 555.991 149.985 555.282 149.465 554.369C148.96 553.456 148.707 552.403 148.707 551.21C148.707 550.016 148.967 548.963 149.487 548.051C150.02 547.138 150.743 546.436 151.656 545.944C152.569 545.439 153.586 545.186 154.71 545.186C155.833 545.186 156.851 545.439 157.764 545.944C158.676 546.436 159.392 547.138 159.912 548.051C160.445 548.963 160.712 550.016 160.712 551.21C160.712 552.403 160.438 553.456 159.891 554.369C159.357 555.282 158.627 555.991 157.7 556.496C156.788 556.988 155.763 557.233 154.626 557.233ZM154.626 554.664C155.159 554.664 155.658 554.537 156.121 554.285C156.598 554.018 156.977 553.625 157.258 553.105C157.539 552.586 157.679 551.954 157.679 551.21C157.679 550.101 157.385 549.251 156.795 548.661C156.219 548.058 155.51 547.756 154.668 547.756C153.825 547.756 153.116 548.058 152.54 548.661C151.979 549.251 151.698 550.101 151.698 551.21C151.698 552.319 151.972 553.176 152.519 553.779C153.081 554.369 153.783 554.664 154.626 554.664ZM168.965 545.207C170.355 545.207 171.478 545.65 172.335 546.534C173.191 547.405 173.619 548.626 173.619 550.199V557.044H170.671V550.599C170.671 549.672 170.439 548.963 169.976 548.472C169.512 547.966 168.881 547.714 168.08 547.714C167.266 547.714 166.62 547.966 166.143 548.472C165.679 548.963 165.448 549.672 165.448 550.599V557.044H162.499V545.376H165.448V546.829C165.841 546.324 166.339 545.93 166.943 545.65C167.561 545.355 168.235 545.207 168.965 545.207ZM179.48 547.798V553.442C179.48 553.835 179.572 554.123 179.754 554.306C179.951 554.474 180.274 554.559 180.723 554.559H182.092V557.044H180.239C177.753 557.044 176.511 555.836 176.511 553.421V547.798H175.121V545.376H176.511V542.49H179.48V545.376H182.092V547.798H179.48ZM183.078 551.168C183.078 549.988 183.31 548.942 183.773 548.03C184.251 547.117 184.89 546.415 185.69 545.923C186.504 545.432 187.41 545.186 188.407 545.186C189.277 545.186 190.036 545.362 190.682 545.713C191.341 546.064 191.868 546.506 192.261 547.04V545.376H195.231V557.044H192.261V555.338C191.882 555.885 191.355 556.342 190.682 556.707C190.022 557.058 189.256 557.233 188.386 557.233C187.403 557.233 186.504 556.981 185.69 556.475C184.89 555.97 184.251 555.261 183.773 554.348C183.31 553.421 183.078 552.361 183.078 551.168ZM192.261 551.21C192.261 550.494 192.121 549.883 191.84 549.377C191.559 548.858 191.18 548.465 190.703 548.198C190.225 547.917 189.713 547.777 189.165 547.777C188.618 547.777 188.112 547.91 187.649 548.177C187.185 548.444 186.806 548.837 186.511 549.356C186.231 549.862 186.09 550.466 186.09 551.168C186.09 551.87 186.231 552.488 186.511 553.021C186.806 553.541 187.185 553.941 187.649 554.222C188.126 554.502 188.632 554.643 189.165 554.643C189.713 554.643 190.225 554.509 190.703 554.243C191.18 553.962 191.559 553.569 191.84 553.063C192.121 552.544 192.261 551.926 192.261 551.21ZM196.976 551.21C196.976 550.002 197.222 548.949 197.713 548.051C198.205 547.138 198.886 546.436 199.756 545.944C200.627 545.439 201.624 545.186 202.747 545.186C204.193 545.186 205.387 545.551 206.328 546.281C207.282 546.998 207.921 548.008 208.244 549.314H205.064C204.895 548.809 204.608 548.416 204.2 548.135C203.807 547.84 203.316 547.693 202.726 547.693C201.884 547.693 201.217 548.001 200.725 548.619C200.234 549.223 199.988 550.087 199.988 551.21C199.988 552.319 200.234 553.183 200.725 553.8C201.217 554.404 201.884 554.706 202.726 554.706C203.919 554.706 204.699 554.172 205.064 553.105H208.244C207.921 554.369 207.282 555.373 206.328 556.117C205.373 556.861 204.179 557.233 202.747 557.233C201.624 557.233 200.627 556.988 199.756 556.496C198.886 555.991 198.205 555.289 197.713 554.39C197.222 553.477 196.976 552.417 196.976 551.21ZM213.461 547.798V553.442C213.461 553.835 213.552 554.123 213.735 554.306C213.931 554.474 214.254 554.559 214.704 554.559H216.073V557.044H214.219C211.734 557.044 210.491 555.836 210.491 553.421V547.798H209.101V545.376H210.491V542.49H213.461V545.376H216.073V547.798H213.461ZM222.282 557.233C221.328 557.233 220.471 557.065 219.713 556.728C218.955 556.377 218.351 555.906 217.902 555.317C217.466 554.727 217.228 554.074 217.186 553.358H220.155C220.211 553.807 220.429 554.179 220.808 554.474C221.201 554.769 221.686 554.917 222.261 554.917C222.823 554.917 223.258 554.804 223.567 554.58C223.89 554.355 224.052 554.067 224.052 553.716C224.052 553.337 223.855 553.056 223.462 552.874C223.083 552.677 222.472 552.466 221.63 552.242C220.759 552.031 220.043 551.814 219.481 551.589C218.934 551.364 218.456 551.02 218.049 550.557C217.656 550.094 217.459 549.469 217.459 548.682C217.459 548.037 217.642 547.447 218.007 546.913C218.386 546.38 218.92 545.959 219.608 545.65C220.31 545.341 221.131 545.186 222.072 545.186C223.462 545.186 224.571 545.537 225.399 546.239C226.228 546.927 226.684 547.861 226.768 549.04H223.946C223.904 548.577 223.708 548.212 223.357 547.945C223.02 547.664 222.563 547.524 221.988 547.524C221.454 547.524 221.04 547.622 220.745 547.819C220.464 548.015 220.324 548.289 220.324 548.64C220.324 549.033 220.52 549.335 220.913 549.546C221.307 549.743 221.917 549.946 222.746 550.157C223.588 550.367 224.283 550.585 224.831 550.81C225.378 551.034 225.849 551.385 226.242 551.863C226.649 552.326 226.86 552.944 226.874 553.716C226.874 554.39 226.684 554.994 226.305 555.527C225.94 556.061 225.407 556.482 224.704 556.791C224.016 557.086 223.209 557.233 222.282 557.233Z" fill="#646464"/>
<rect x="293" y="354" width="136.175" height="54.1577" rx="27.0789" fill="#F5F4F6"/>
<rect x="305.035" y="363.026" width="112.105" height="37.0351" rx="18.5175" fill="#F4BBEA"/>
<path d="M344.191 373.343L340.084 388.044H336.609L333.85 377.576L330.965 388.044L327.511 388.065L323.551 373.343H326.71L329.301 384.758L332.292 373.343H335.577L338.399 384.695L341.011 373.343H344.191ZM348.689 378.187C349.068 377.569 349.56 377.085 350.163 376.734C350.781 376.383 351.483 376.207 352.27 376.207V379.303H351.49C350.564 379.303 349.862 379.521 349.384 379.956C348.921 380.392 348.689 381.15 348.689 382.231V388.044H345.741V376.376H348.689V378.187ZM355.375 374.986C354.855 374.986 354.42 374.824 354.069 374.501C353.732 374.164 353.564 373.75 353.564 373.259C353.564 372.767 353.732 372.36 354.069 372.037C354.42 371.7 354.855 371.532 355.375 371.532C355.894 371.532 356.323 371.7 356.66 372.037C357.011 372.36 357.186 372.767 357.186 373.259C357.186 373.75 357.011 374.164 356.66 374.501C356.323 374.824 355.894 374.986 355.375 374.986ZM356.828 376.376V388.044H353.88V376.376H356.828ZM362.798 378.798V384.442C362.798 384.835 362.889 385.123 363.072 385.306C363.269 385.474 363.592 385.559 364.041 385.559H365.41V388.044H363.556C361.071 388.044 359.829 386.836 359.829 384.421V378.798H358.439V376.376H359.829V373.49H362.798V376.376H365.41V378.798H362.798ZM368.65 374.986C368.13 374.986 367.695 374.824 367.344 374.501C367.007 374.164 366.839 373.75 366.839 373.259C366.839 372.767 367.007 372.36 367.344 372.037C367.695 371.7 368.13 371.532 368.65 371.532C369.169 371.532 369.598 371.7 369.935 372.037C370.286 372.36 370.461 372.767 370.461 373.259C370.461 373.75 370.286 374.164 369.935 374.501C369.598 374.824 369.169 374.986 368.65 374.986ZM370.103 376.376V388.044H367.154V376.376H370.103ZM379.106 376.207C380.496 376.207 381.619 376.65 382.476 377.534C383.332 378.405 383.761 379.626 383.761 381.199V388.044H380.812V381.599C380.812 380.672 380.58 379.963 380.117 379.472C379.654 378.966 379.022 378.714 378.221 378.714C377.407 378.714 376.761 378.966 376.284 379.472C375.82 379.963 375.589 380.672 375.589 381.599V388.044H372.64V376.376H375.589V377.829C375.982 377.324 376.48 376.93 377.084 376.65C377.702 376.355 378.376 376.207 379.106 376.207ZM390.759 376.186C391.629 376.186 392.395 376.362 393.054 376.713C393.714 377.05 394.234 377.492 394.613 378.04V376.376H397.583V388.128C397.583 389.209 397.365 390.171 396.93 391.013C396.494 391.87 395.842 392.544 394.971 393.035C394.101 393.541 393.047 393.794 391.812 393.794C390.155 393.794 388.793 393.407 387.726 392.635C386.673 391.863 386.076 390.81 385.936 389.476H388.863C389.018 390.01 389.348 390.431 389.853 390.74C390.373 391.063 390.997 391.224 391.728 391.224C392.584 391.224 393.279 390.964 393.813 390.445C394.346 389.939 394.613 389.167 394.613 388.128V386.317C394.234 386.864 393.707 387.321 393.033 387.686C392.373 388.051 391.615 388.233 390.759 388.233C389.776 388.233 388.877 387.981 388.063 387.475C387.249 386.97 386.603 386.261 386.125 385.348C385.662 384.421 385.43 383.361 385.43 382.168C385.43 380.988 385.662 379.942 386.125 379.03C386.603 378.117 387.242 377.415 388.042 376.923C388.856 376.432 389.762 376.186 390.759 376.186ZM394.613 382.21C394.613 381.494 394.473 380.883 394.192 380.377C393.911 379.858 393.532 379.465 393.054 379.198C392.577 378.917 392.065 378.777 391.517 378.777C390.969 378.777 390.464 378.91 390.001 379.177C389.537 379.444 389.158 379.837 388.863 380.356C388.582 380.862 388.442 381.466 388.442 382.168C388.442 382.87 388.582 383.488 388.863 384.021C389.158 384.541 389.537 384.941 390.001 385.222C390.478 385.502 390.983 385.643 391.517 385.643C392.065 385.643 392.577 385.509 393.054 385.243C393.532 384.962 393.911 384.569 394.192 384.063C394.473 383.544 394.613 382.926 394.613 382.21Z" fill="#646464"/>
<g clip-path="url(#clip1_501_21597)">
<path d="M85.4258 455.375H60.3242C54.2081 455.375 49.25 460.333 49.25 466.449V491.551C49.25 497.667 54.2081 502.625 60.3242 502.625H85.4258C91.5419 502.625 96.5 497.667 96.5 491.551V466.449C96.5 460.333 91.5419 455.375 85.4258 455.375Z" fill="url(#paint0_radial_501_21597)"/>
<path d="M85.4258 455.375H60.3242C54.2081 455.375 49.25 460.333 49.25 466.449V491.551C49.25 497.667 54.2081 502.625 60.3242 502.625H85.4258C91.5419 502.625 96.5 497.667 96.5 491.551V466.449C96.5 460.333 91.5419 455.375 85.4258 455.375Z" fill="url(#paint1_radial_501_21597)"/>
<path d="M72.8767 460.543C67.8641 460.543 67.2349 460.565 65.2663 460.654C63.3013 460.745 61.9601 461.056 60.7866 461.512C59.5725 461.983 58.5427 462.614 57.5169 463.64C56.4901 464.666 55.8595 465.696 55.3866 466.91C54.9289 468.083 54.6175 469.425 54.5291 471.389C54.441 473.358 54.418 473.987 54.418 479C54.418 484.013 54.4401 484.64 54.5294 486.609C54.6199 488.574 54.9309 489.915 55.387 491.088C55.8587 492.303 56.4894 493.332 57.5156 494.358C58.5413 495.385 59.571 496.017 60.7842 496.488C61.9586 496.945 63.3 497.256 65.2646 497.346C67.2334 497.435 67.8621 497.457 72.8744 497.457C77.8876 497.457 78.5147 497.435 80.4834 497.346C82.4483 497.256 83.791 496.945 84.9655 496.488C86.179 496.017 87.2073 495.385 88.2327 494.358C89.2595 493.332 89.89 492.303 90.363 491.089C90.8167 489.915 91.1283 488.573 91.2206 486.609C91.309 484.64 91.332 484.013 91.332 479C91.332 473.987 91.309 473.358 91.2206 471.39C91.1283 469.425 90.8167 468.084 90.363 466.91C89.89 465.696 89.2595 464.666 88.2327 463.64C87.2061 462.614 86.1794 461.983 84.9644 461.512C83.7877 461.056 82.4457 460.744 80.4808 460.654C78.512 460.565 77.8852 460.543 72.8709 460.543H72.8767ZM71.2209 463.869C71.7124 463.868 72.2607 463.869 72.8767 463.869C77.8049 463.869 78.3889 463.887 80.335 463.975C82.1345 464.058 83.1113 464.358 83.7619 464.611C84.6233 464.945 85.2373 465.345 85.883 465.991C86.529 466.637 86.9287 467.253 87.2641 468.114C87.5168 468.764 87.8178 469.74 87.8998 471.54C87.9882 473.486 88.0074 474.07 88.0074 478.996C88.0074 483.922 87.9882 484.506 87.8998 486.452C87.8174 488.251 87.5168 489.228 87.2641 489.878C86.9297 490.739 86.529 491.353 85.883 491.998C85.237 492.644 84.6236 493.044 83.7619 493.379C83.112 493.633 82.1345 493.932 80.335 494.015C78.3892 494.103 77.8049 494.122 72.8767 494.122C67.9483 494.122 67.3641 494.103 65.4185 494.015C63.619 493.932 62.6422 493.631 61.9911 493.378C61.1299 493.044 60.5145 492.644 59.8685 491.998C59.2225 491.352 58.8227 490.738 58.4874 489.877C58.2347 489.227 57.9337 488.25 57.8517 486.45C57.7633 484.505 57.7456 483.92 57.7456 478.991C57.7456 474.063 57.7633 473.481 57.8517 471.535C57.934 469.736 58.2347 468.759 58.4874 468.109C58.822 467.247 59.2225 466.632 59.8687 465.986C60.5147 465.34 61.1299 464.94 61.9913 464.605C62.6419 464.351 63.619 464.051 65.4185 463.968C67.1212 463.891 67.781 463.868 71.2209 463.864V463.869ZM82.729 466.934C81.5062 466.934 80.5142 467.925 80.5142 469.148C80.5142 470.371 81.5062 471.363 82.729 471.363C83.9518 471.363 84.9439 470.371 84.9439 469.148C84.9439 467.925 83.9518 466.933 82.729 466.933V466.934ZM72.8767 469.522C67.6422 469.522 63.3982 473.766 63.3982 479C63.3982 484.235 67.6422 488.477 72.8767 488.477C78.1113 488.477 82.3538 484.235 82.3538 479C82.3538 473.766 78.1109 469.522 72.8763 469.522H72.8767ZM72.8767 472.848C76.2744 472.848 79.0291 475.602 79.0291 479C79.0291 482.398 76.2744 485.153 72.8767 485.153C69.4787 485.153 66.7244 482.398 66.7244 479C66.7244 475.602 69.4787 472.848 72.8767 472.848Z" fill="white"/>
</g>
<g clip-path="url(#clip2_501_21597)">
<path d="M342.475 555.477C342.267 554.709 341.862 554.008 341.299 553.445C340.735 552.881 340.035 552.476 339.266 552.268C336.452 551.5 325.125 551.5 325.125 551.5C325.125 551.5 313.797 551.523 310.983 552.291C310.214 552.499 309.513 552.905 308.95 553.468C308.387 554.031 307.981 554.732 307.773 555.501C306.922 560.501 306.592 568.121 307.797 572.921C308.005 573.69 308.411 574.391 308.974 574.954C309.537 575.517 310.238 575.923 311.006 576.131C313.821 576.899 325.148 576.899 325.148 576.899C325.148 576.899 336.475 576.899 339.289 576.131C340.058 575.923 340.759 575.517 341.322 574.954C341.885 574.391 342.291 573.69 342.499 572.921C343.397 567.914 343.673 560.299 342.475 555.477Z" fill="#FF0000"/>
<path d="M321.518 569.642L330.914 564.199L321.518 558.757V569.642Z" fill="white"/>
</g>
<path d="M250.547 374.738H224.953C224.372 374.732 223.813 374.957 223.398 375.363C222.983 375.769 222.745 376.323 222.738 376.904V402.601C222.747 403.181 222.984 403.734 223.4 404.139C223.815 404.544 224.373 404.768 224.953 404.762H250.547C251.128 404.766 251.687 404.541 252.102 404.135C252.517 403.728 252.754 403.174 252.762 402.594V376.897C252.751 376.318 252.513 375.766 252.098 375.362C251.683 374.958 251.126 374.734 250.547 374.738Z" fill="#0076B2"/>
<path d="M227.181 385.992H231.637V400.332H227.181V385.992ZM229.41 378.855C229.921 378.855 230.421 379.007 230.846 379.291C231.271 379.575 231.602 379.979 231.798 380.451C231.993 380.923 232.044 381.443 231.944 381.944C231.844 382.446 231.598 382.906 231.236 383.267C230.875 383.629 230.414 383.874 229.913 383.974C229.411 384.073 228.892 384.022 228.42 383.826C227.947 383.63 227.544 383.298 227.26 382.873C226.977 382.448 226.826 381.948 226.826 381.437C226.827 380.752 227.099 380.095 227.584 379.611C228.068 379.127 228.725 378.855 229.41 378.855ZM234.433 385.992H238.705V387.961H238.764C239.36 386.834 240.812 385.645 242.98 385.645C247.493 385.635 248.33 388.605 248.33 392.457V400.332H243.873V393.355C243.873 391.694 243.844 389.555 241.557 389.555C239.271 389.555 238.882 391.367 238.882 393.247V400.332H234.433V385.992Z" fill="white"/>
<path d="M420.264 518H424.404L415.359 528.167L426 542H417.668L411.143 533.609L403.676 542H399.532L409.207 531.127L399 518H407.543L413.442 525.669L420.264 518ZM418.811 539.563H421.106L406.295 520.309H403.833L418.811 539.563Z" fill="#595757"/>
</g>
<defs>
<filter id="filter0_d_501_21597" x="0" y="0" width="444" height="614" filterUnits="userSpaceOnUse" color-interpolation-filters="sRGB">
<feFlood flood-opacity="0" result="BackgroundImageFix"/>
<feColorMatrix in="SourceAlpha" type="matrix" values="0 0 0 0 0 0 0 0 0 0 0 0 0 0 0 0 0 0 127 0" result="hardAlpha"/>
<feOffset dy="8"/>
<feGaussianBlur stdDeviation="6"/>
<feColorMatrix type="matrix" values="0 0 0 0 0 0 0 0 0 0 0 0 0 0 0 0 0 0 0.12 0"/>
<feBlend mode="normal" in2="BackgroundImageFix" result="effect1_dropShadow_501_21597"/>
<feBlend mode="normal" in="SourceGraphic" in2="effect1_dropShadow_501_21597" result="shape"/>
</filter>
<radialGradient id="paint0_radial_501_21597" cx="0" cy="0" r="1" gradientUnits="userSpaceOnUse" gradientTransform="translate(61.8008 506.264) rotate(-90) scale(46.8283 43.554)">
<stop stop-color="#FFDD55"/>
<stop offset="0.1" stop-color="#FFDD55"/>
<stop offset="0.5" stop-color="#FF543E"/>
<stop offset="1" stop-color="#C837AB"/>
</radialGradient>
<radialGradient id="paint1_radial_501_21597" cx="0" cy="0" r="1" gradientUnits="userSpaceOnUse" gradientTransform="translate(41.3354 458.779) rotate(78.681) scale(20.9325 86.2844)">
<stop stop-color="#3771C8"/>
<stop offset="0.128" stop-color="#3771C8"/>
<stop offset="1" stop-color="#6600FF" stop-opacity="0"/>
</radialGradient>
<clipPath id="clip0_501_21597">
<path d="M12 353H432V542C432 570.719 408.719 594 380 594H64C35.2812 594 12 570.719 12 542V353Z" fill="white"/>
</clipPath>
<clipPath id="clip1_501_21597">
<rect width="47.25" height="47.25" fill="white" transform="translate(49.25 455.375)"/>
</clipPath>
<clipPath id="clip2_501_21597">
<rect width="36.2737" height="25.5" fill="white" transform="translate(307 551.5)"/>
</clipPath>
</defs>
</svg>
