<svg width="25" height="24" viewBox="0 0 25 24" fill="none" xmlns="http://www.w3.org/2000/svg">
<g clip-path="url(#clip0_452_22504)">
<path d="M21.9316 0.562465H2.43164C1.9892 0.557962 1.56304 0.72916 1.24668 1.0385C0.930311 1.34783 0.74958 1.77003 0.744141 2.21246V21.7912C0.750564 22.233 0.931727 22.6542 1.24799 22.9628C1.56424 23.2713 1.98984 23.442 2.43164 23.4375H21.9316C22.3741 23.441 22.8 23.2692 23.1162 22.9597C23.4324 22.6501 23.6132 22.228 23.6191 21.7856V2.20684C23.6112 1.76571 23.4296 1.34552 23.1136 1.0376C22.7976 0.729686 22.3728 0.558935 21.9316 0.562465Z" fill="#0076B2"/>
<path d="M4.13133 9.13672H7.52695V20.0623H4.13133V9.13672ZM5.83008 3.69922C6.21954 3.69922 6.60025 3.81473 6.92405 4.03114C7.24785 4.24756 7.50019 4.55514 7.64915 4.91499C7.7981 5.27485 7.83698 5.67079 7.76086 6.05274C7.68474 6.43469 7.49705 6.78549 7.22153 7.06075C6.94601 7.33601 6.59504 7.52337 6.21301 7.59912C5.83099 7.67487 5.43508 7.63561 5.07537 7.48632C4.71566 7.33702 4.40831 7.08439 4.19221 6.76038C3.97611 6.43638 3.86096 6.05556 3.86133 5.66609C3.86183 5.14427 4.06947 4.644 4.43862 4.27519C4.80778 3.90638 5.30826 3.69922 5.83008 3.69922ZM9.65695 9.13672H12.912V10.6367H12.957C13.4107 9.77797 14.517 8.87234 16.1688 8.87234C19.6076 8.86484 20.2451 11.128 20.2451 14.0623V20.0623H16.8495V14.7467C16.8495 13.4811 16.827 11.8517 15.0851 11.8517C13.3432 11.8517 13.047 13.2317 13.047 14.6642V20.0623H9.65695V9.13672Z" fill="white"/>
</g>
<defs>
<clipPath id="clip0_452_22504">
<rect width="24" height="24" fill="white" transform="translate(0.181641)"/>
</clipPath>
</defs>
</svg>
