<svg width="25" height="18" viewBox="0 0 25 18" fill="none" xmlns="http://www.w3.org/2000/svg">
<g clip-path="url(#clip0_452_22500)">
<path d="M23.6477 3.15153C23.509 2.63903 23.2385 2.1718 22.8631 1.79637C22.4877 1.42094 22.0205 1.1504 21.508 1.0117C19.6317 0.5 12.0805 0.5 12.0805 0.5C12.0805 0.5 4.52895 0.515489 2.65271 1.02719C2.14021 1.1659 1.67299 1.43645 1.29757 1.8119C0.922155 2.18735 0.651645 2.6546 0.51298 3.16711C-0.0545367 6.50081 -0.274687 11.5806 0.528563 14.7809C0.667243 15.2934 0.937759 15.7607 1.31317 16.1361C1.68859 16.5115 2.1558 16.7821 2.6683 16.9208C4.54453 17.4325 12.0959 17.4325 12.0959 17.4325C12.0959 17.4325 19.6472 17.4325 21.5234 16.9208C22.0359 16.7821 22.5031 16.5116 22.8785 16.1361C23.254 15.7607 23.5245 15.2935 23.6632 14.7809C24.2618 11.4425 24.4462 6.36585 23.6477 3.15153Z" fill="#FF0000"/>
<path d="M9.67578 12.5946L15.9401 8.96626L9.67578 5.33789V12.5946Z" fill="white"/>
</g>
<defs>
<clipPath id="clip0_452_22500">
<rect width="24.1825" height="17" fill="white" transform="translate(0 0.5)"/>
</clipPath>
</defs>
</svg>
