<svg width="20" height="20" viewBox="0 0 20 20" fill="none" xmlns="http://www.w3.org/2000/svg">
<path d="M2.75 9.25C2.33579 9.25 2 9.58578 2 10C2 10.4142 2.33579 10.75 2.75 10.75H11.3636L8.23503 13.7047C7.93389 13.9891 7.92033 14.4638 8.20474 14.765C8.48915 15.0661 8.96383 15.0797 9.26497 14.7953L13.765 10.5453C13.915 10.4036 14 10.2063 14 10C14 9.79365 13.915 9.59642 13.765 9.45474L9.26497 5.20474C8.96383 4.92033 8.48915 4.93389 8.20474 5.23503C7.92033 5.53617 7.93389 6.01085 8.23503 6.29526L11.3636 9.25H2.75Z" fill="#0F172A"/>
<path d="M12.75 16.5C12.3358 16.5 12 16.8358 12 17.25C12 17.6642 12.3358 18 12.75 18H15.25C16.7688 18 18 16.7688 18 15.25V4.75C18 3.23122 16.7688 2 15.25 2H12.75C12.3358 2 12 2.33579 12 2.75C12 3.16421 12.3358 3.5 12.75 3.5H15.25C15.9404 3.5 16.5 4.05964 16.5 4.75V15.25C16.5 15.9404 15.9404 16.5 15.25 16.5H12.75Z" fill="#0F172A"/>
</svg>
