<svg width="107" height="20" viewBox="0 0 107 20" fill="none" xmlns="http://www.w3.org/2000/svg">
<path d="M19.7901 19.9796C13.5179 19.9796 7.24287 19.9622 0.970682 19.9999C0.18806 20.0057 -0.00268601 19.8173 0.000119089 19.0119C0.0365853 13.003 0.0365853 6.99691 0.000119089 0.98797C-0.0054911 0.185425 0.185255 0 0.967877 0C13.5151 0.0289727 26.0595 0.0289727 38.6066 0C39.3893 0 39.58 0.182528 39.5772 0.985073C39.5407 6.99402 39.5407 13.0001 39.5772 19.009C39.5828 19.8115 39.3949 19.9999 38.6094 19.997C32.3373 19.9593 26.0623 19.9767 19.7901 19.9767V19.9796ZM19.7929 0.880771C13.7984 0.880771 7.8067 0.898154 1.81221 0.86049C1.0352 0.854695 0.833232 1.03143 0.838842 1.84267C0.878114 7.27795 0.878114 12.7161 0.838842 18.1514C0.833232 18.9453 1.00715 19.1452 1.80099 19.1452C13.7872 19.1162 25.7733 19.1162 37.7623 19.1452C38.5365 19.1452 38.7413 18.9742 38.7357 18.163C38.6964 12.7277 38.6964 7.28954 38.7357 1.85425C38.7413 1.0604 38.5674 0.854695 37.7735 0.86049C31.779 0.901052 25.7874 0.880771 19.7929 0.880771Z" fill="#333333"/>
<path d="M49.0685 7.39946C48.3027 10.1432 47.5229 12.884 46.7824 15.6335C46.6253 16.2217 46.443 16.5461 45.7501 16.5433C45.06 16.5433 44.788 16.2999 44.6028 15.6364C43.6575 12.2379 42.6533 8.85679 41.6995 5.45829C41.6238 5.18884 41.1413 4.65864 41.8398 4.56303C42.3139 4.49929 42.9366 4.23853 43.1666 5.13379C43.8735 7.89489 44.6589 10.6357 45.4163 13.3852C45.4808 13.6199 45.565 13.8488 45.7333 14.3819C46.2466 12.6117 46.6814 11.1138 47.1134 9.61298C47.5257 8.17593 47.9549 6.73888 48.3308 5.29314C48.4654 4.77163 48.6506 4.51377 49.2368 4.51088C49.8287 4.50798 49.9914 4.77163 50.1289 5.29314C50.8862 8.17882 51.6857 11.0558 52.4851 13.9994C52.948 13.7474 52.9227 13.3186 53.0153 12.9767C53.6801 10.4619 54.3197 7.94125 54.9985 5.42931C55.0827 5.1222 54.9985 4.63836 55.467 4.56303C55.84 4.50219 56.2916 4.38629 56.5862 4.63256C56.8499 4.85565 56.575 5.2294 56.4964 5.51913C55.6128 8.74959 54.7236 11.98 53.8119 15.2018C53.6352 15.8305 53.6801 16.5867 52.5805 16.5635C51.4753 16.5404 51.5735 15.7407 51.3996 15.1381C50.659 12.5769 49.9718 9.99831 49.2621 7.42553L49.0685 7.39946Z" fill="#4851CE"/>
<path d="M58.4834 10.5402C58.4834 8.79025 58.4946 7.04029 58.475 5.29034C58.4693 4.78042 58.5507 4.50518 59.151 4.51387C59.7204 4.52256 59.9673 4.65874 59.9476 5.29614C59.9056 6.57963 59.956 7.86891 59.9252 9.15241C59.9112 9.70868 60.0935 9.9028 60.6461 9.89121C62.1861 9.86224 63.7261 9.86513 65.2661 9.89121C65.8103 9.8999 66.0122 9.69999 66.001 9.14661C65.9758 7.86022 66.0094 6.57383 65.987 5.29034C65.9786 4.76304 66.1104 4.51967 66.6883 4.51967C67.2689 4.51967 67.3895 4.76883 67.3867 5.29324C67.3727 8.75838 67.3727 12.2206 67.3867 15.6858C67.3867 16.2362 67.2998 16.5462 66.649 16.5347C66.0319 16.5231 65.9842 16.1986 65.9898 15.7147C66.0038 14.466 65.973 13.2144 66.0038 11.9657C66.0179 11.3601 65.8075 11.1515 65.2128 11.1631C63.6728 11.195 62.1328 11.1892 60.5928 11.1631C60.0907 11.1544 59.9196 11.3398 59.928 11.8469C59.9504 13.1333 59.914 14.4196 59.9448 15.7031C59.9588 16.2797 59.8158 16.526 59.1931 16.5347C58.5254 16.5462 58.4693 16.2218 58.475 15.6829C58.4974 13.9677 58.4834 12.2554 58.4834 10.5402Z" fill="#4851CE"/>
<path d="M74.3091 14.7038C74.3091 14.5618 74.4466 14.4662 74.57 14.53C75.6528 15.1036 76.6121 15.4658 77.664 15.4252C78.5953 15.3905 79.5294 15.2398 79.9137 14.1939C80.2587 13.2523 79.852 12.4497 78.7019 11.7515C77.8295 11.2213 76.9038 10.7867 76.0314 10.2594C74.8954 9.57273 74.1801 8.58476 74.3652 7.17379C74.5588 5.6788 75.5434 4.88205 76.9066 4.51699C78.0455 4.20988 79.204 4.2939 80.3485 4.44456C80.9881 4.52858 81.3724 5.48468 81.0442 6.01198C80.8226 6.36835 80.6122 6.05544 80.4186 5.9917C79.4396 5.6788 78.4579 5.47309 77.4312 5.74833C76.7187 5.93955 76.0932 6.23217 75.9192 7.04631C75.7313 7.93577 76.1268 8.58476 76.8505 9.02225C77.5125 9.42207 78.2054 9.76685 78.8842 10.1377C79.6304 10.5433 80.3485 10.9866 80.8871 11.6704C82.0259 13.1277 81.6781 15.2079 80.0792 16.1032C78.3625 17.0651 76.5532 16.9028 74.786 16.2596C74.0567 15.9931 74.3232 15.3731 74.3119 14.7009L74.3091 14.7038Z" fill="#4851CE"/>
<path d="M100.355 10.5198C100.355 8.76694 100.372 7.01409 100.344 5.26124C100.336 4.69917 100.518 4.50795 101.068 4.51954C102.611 4.54851 104.153 4.53692 105.693 4.52533C106.128 4.52243 106.417 4.56879 106.428 5.14245C106.439 5.76247 106.145 5.84069 105.654 5.832C104.639 5.81172 103.62 5.84938 102.605 5.81751C102.05 5.80013 101.761 5.91312 101.8 6.5708C101.85 7.4255 101.839 8.28889 101.803 9.14358C101.78 9.69406 101.949 9.85631 102.512 9.88818C103.326 9.93164 104.125 9.84183 104.93 9.89398C105.368 9.92295 106.024 9.68537 106.08 10.4995C106.052 11.2934 105.407 11.163 104.88 11.163C104.148 11.163 103.267 11.2006 102.462 11.1688C101.951 11.1485 101.789 11.3513 101.805 11.8554C101.834 12.7478 101.845 13.6459 101.803 14.5383C101.772 15.1525 102.061 15.2452 102.563 15.2336C103.685 15.2105 104.807 15.2336 105.926 15.2221C106.353 15.2163 106.658 15.2394 106.667 15.8276C106.675 16.4331 106.414 16.5345 105.907 16.5287C104.294 16.5056 102.681 16.5027 101.071 16.5287C100.515 16.5374 100.341 16.3346 100.35 15.7783C100.375 14.0255 100.358 12.2726 100.358 10.5198H100.355Z" fill="#4851CE"/>
<path d="M86.6546 4.53155C87.7739 4.53155 88.8931 4.55183 90.0095 4.52286C90.5369 4.51127 90.6519 4.75175 90.6519 5.23269C90.6519 5.71943 90.4331 5.8614 90.0095 5.82953C89.9057 5.82084 89.7991 5.82953 89.6953 5.82953C87.2409 5.8643 87.2409 5.41232 87.2409 7.97351C87.2409 10.2913 87.2465 13.0611 87.2353 15.3789C87.2353 15.9004 87.4653 16.5494 86.5003 16.5378C85.4849 16.5263 85.8355 15.8106 85.8327 15.3384C85.8075 12.4846 85.7963 9.63075 85.8327 6.77694C85.844 6.04683 85.6785 5.77448 84.9155 5.81504C84.4274 5.84112 83.9365 5.81504 83.4484 5.82953C82.9659 5.84402 82.5508 5.8672 82.5648 5.14577C82.5788 4.4823 82.9659 4.52286 83.4035 4.52576C84.4863 4.53445 85.5719 4.52576 86.6546 4.52866V4.53155Z" fill="#4851CE"/>
<path d="M92.3969 10.4911C92.3969 8.81069 92.4081 7.13027 92.3913 5.44985C92.3857 4.89937 92.3913 4.50244 93.1402 4.50244C93.8583 4.50244 93.9229 4.84432 93.9201 5.42088C93.9032 8.35292 93.9397 11.285 93.8948 14.217C93.8836 15.0369 94.1445 15.2832 94.9187 15.2339C95.8247 15.1731 96.7392 15.2108 97.6508 15.2224C98.1109 15.2281 98.6635 15.0485 98.6466 15.8945C98.627 16.7666 98.0295 16.5029 97.6031 16.5116C96.2006 16.5348 94.798 16.4798 93.3983 16.5377C92.6297 16.5696 92.3464 16.3639 92.3773 15.5324C92.439 13.8548 92.3969 12.1715 92.3969 10.4911Z" fill="#4851CE"/>
<path d="M71.8884 10.6157C71.8884 12.328 71.866 14.0432 71.8997 15.7555C71.9137 16.3871 71.6668 16.5407 71.0946 16.5378C70.542 16.5378 70.3653 16.3292 70.3681 15.7845C70.3821 12.2875 70.3877 8.78757 70.3653 5.29056C70.3625 4.66475 70.6009 4.52279 71.1703 4.5112C71.8323 4.49671 71.8996 4.8299 71.894 5.36879C71.8744 7.11874 71.8856 8.8658 71.8856 10.6157H71.8884Z" fill="#4851CE"/>
<path d="M19.792 0.880769C25.7865 0.880769 31.7782 0.898152 37.7727 0.860488C38.5666 0.854693 38.7405 1.0604 38.7349 1.85425C38.6984 7.28954 38.6956 12.7277 38.7349 18.163C38.7405 18.9742 38.5357 19.1481 37.7615 19.1452C25.7753 19.1162 13.7891 19.1162 1.80017 19.1452C1.00633 19.1452 0.83241 18.9453 0.83802 18.1514C0.874487 12.7161 0.877292 7.27795 0.83802 1.84266C0.83241 1.03143 1.03718 0.854693 1.81139 0.860488C7.80588 0.898152 13.7976 0.880769 19.792 0.880769ZM5.31215 10.5055C5.31215 11.3631 5.29251 12.2207 5.31776 13.0754C5.34581 14.1764 4.85772 15.6453 5.49167 16.2798C6.22661 17.0157 7.68526 16.526 8.82132 16.5C12.4062 16.4159 14.6756 14.1416 14.8354 10.5779C14.9869 7.19103 13.3712 5.16004 10.1061 4.64722C8.71473 4.42703 7.30937 4.59797 5.91524 4.52843C5.35142 4.50236 5.30373 4.80657 5.30934 5.25855C5.32337 7.0085 5.31495 8.75845 5.31495 10.5084L5.31215 10.5055ZM30.1961 6.40876C30.342 4.86452 30.2915 4.7747 28.9619 4.52554C27.5706 4.26478 26.168 4.17786 24.8132 4.69358C22.4457 5.59753 21.1553 7.40543 20.9141 9.93185C20.6869 12.3105 21.2591 14.469 23.3545 15.8249C25.5004 17.2127 27.7613 16.9288 29.9998 15.9553C30.3841 15.7872 30.4907 15.5091 30.4879 15.1093C30.4738 13.7157 30.471 12.3192 30.4879 10.9256C30.4935 10.462 30.328 10.2911 29.8764 10.3027C28.9647 10.3259 28.0531 10.3375 27.1442 10.2969C26.6225 10.2737 26.5018 10.4765 26.4962 10.9749C26.4906 11.5138 26.6982 11.6557 27.1779 11.6181C27.6323 11.5862 28.0895 11.6123 28.5439 11.6123C28.7964 11.6123 28.9843 11.6239 29.0769 11.9628C29.767 14.5095 29.0012 15.5178 26.398 15.428C26.0867 15.4164 25.7669 15.3758 25.4639 15.3005C22.5775 14.5791 21.3152 10.575 23.074 7.70674C23.8959 6.3682 25.0909 5.67576 26.6505 5.61781C27.8679 5.57435 29.0096 5.85249 30.1933 6.40876H30.1961ZM17.0907 10.4273C17.0907 12.212 17.1188 13.9938 17.0767 15.7785C17.0627 16.442 17.3488 16.5145 17.8902 16.5347C18.5213 16.5608 18.541 16.2334 18.5382 15.7525C18.5269 12.2555 18.5241 8.76135 18.5382 5.26434C18.5382 4.75152 18.4596 4.49656 17.8621 4.51395C17.2899 4.52843 17.0599 4.65881 17.0739 5.29042C17.1132 7.00271 17.0879 8.71499 17.0879 10.4273H17.0907ZM34.5412 10.5026C34.5412 8.78743 34.5272 7.07224 34.5497 5.35705C34.5553 4.82106 34.516 4.49656 33.8372 4.51974C33.2537 4.54002 33.1471 4.76601 33.1499 5.28752C33.1667 8.79032 33.1667 12.2931 33.1499 15.793C33.1471 16.3551 33.335 16.5173 33.8764 16.5289C34.4823 16.5434 34.5553 16.2624 34.5497 15.7554C34.53 14.0054 34.5412 12.2526 34.5412 10.5026Z" fill="white"/>
<path d="M5.31351 10.5055C5.31351 8.7555 5.32192 7.00555 5.3079 5.25559C5.30509 4.80362 5.35278 4.49941 5.9138 4.52548C7.31074 4.59212 8.71328 4.42408 10.1046 4.64427C13.3669 5.15998 14.9855 7.18808 14.834 10.575C14.6741 14.1386 12.4048 16.413 8.81988 16.497C7.70345 16.442 5.70061 16.8563 5.49023 16.2768C5.17045 15.3932 5.34717 14.1734 5.31631 13.0724C5.29387 12.2148 5.3107 11.3573 5.3107 10.5026L5.31351 10.5055ZM6.75533 10.5634C6.75533 11.8846 6.74972 13.2057 6.76094 14.524C6.76094 14.8137 6.6319 15.1816 7.15085 15.2251C10.9994 15.5409 13.8466 14.0749 13.2996 9.41028C13.0724 7.4836 12.0766 6.44348 10.2084 5.9886C9.23784 5.75103 8.25886 5.8901 7.28549 5.82636C6.75252 5.79159 6.74972 6.10739 6.75252 6.49563C6.76094 7.85155 6.75533 9.20747 6.75533 10.5634Z" fill="#333333"/>
<path d="M30.197 6.40873C29.0133 5.85246 27.8716 5.57432 26.6542 5.61778C25.0945 5.67572 23.8996 6.37107 23.0777 7.70671C21.3161 10.575 22.5812 14.579 25.4676 15.3005C25.7706 15.3758 26.0875 15.4192 26.4017 15.4279C29.6472 15.4975 29.535 14.8398 29.3611 11.9628C29.3358 11.5514 28.8001 11.6122 28.5476 11.6122C28.0932 11.6122 27.6332 11.5862 27.1815 11.618C26.7019 11.6528 26.4915 11.5137 26.4999 10.9748C26.5055 10.4765 26.6289 10.2737 27.1479 10.2969C28.0567 10.3345 28.9712 10.3229 29.88 10.3027C30.3317 10.2911 30.4972 10.4649 30.4915 10.9256C30.4719 12.3192 30.4775 13.7157 30.4915 15.1092C30.4944 15.5091 30.3878 15.7872 30.0035 15.9552C27.7778 17.0179 25.5556 17.0179 23.3582 15.8249C21.26 14.4689 20.6905 12.3134 20.9178 9.93181C21.159 7.40539 22.4465 5.5975 24.8168 4.69355C26.1717 4.17783 27.5742 4.26185 28.9656 4.52551C30.2952 4.77467 30.3457 4.86449 30.1998 6.40873H30.197Z" fill="#333333"/>
<path d="M17.0908 10.4271C17.0908 8.71481 17.116 7.00252 17.0768 5.29024C17.0627 4.65863 17.2928 4.52825 17.865 4.51377C18.4625 4.49928 18.541 4.75424 18.541 5.26416C18.527 8.76117 18.527 12.2553 18.541 15.7523C18.541 16.2332 18.5242 16.5606 17.8931 16.5346C17.3517 16.5114 17.0656 16.4418 17.0796 15.7784C17.1217 13.9965 17.0936 12.2118 17.0936 10.4271H17.0908Z" fill="#333333"/>
<path d="M34.5417 10.5026C34.5417 12.2525 34.5305 14.0054 34.5502 15.7553C34.5558 16.2624 34.4828 16.5434 33.8769 16.5289C33.3328 16.5173 33.1476 16.3551 33.1504 15.793C33.1701 12.2902 33.1673 8.7874 33.1504 5.2875C33.1504 4.76599 33.257 4.54 33.8377 4.51972C34.5165 4.49654 34.5558 4.82103 34.5502 5.35703C34.5277 7.07222 34.5417 8.7874 34.5417 10.5026Z" fill="#333333"/>
</svg>
